<svg width="513" height="483" viewBox="0 0 513 483" fill="none" xmlns="http://www.w3.org/2000/svg">
<path d="M437.433 230.645C337.364 173.113 175.118 173.113 75.048 230.645C-25.0216 288.177 -25.0104 381.47 75.048 439.002C175.106 496.533 337.353 496.545 437.422 439.002C537.492 381.458 537.492 288.188 437.433 230.645Z" fill="#FFD25B"/>
<path d="M134.869 342.471C173.993 342.471 205.709 324.156 205.709 301.564C205.709 278.971 173.993 260.656 134.869 260.656C95.7447 260.656 64.0284 278.971 64.0284 301.564C64.0284 324.156 95.7447 342.471 134.869 342.471Z" fill="#FFB85B"/>
<path d="M255.493 409.136L248.905 405.329L253.695 402.571C254.556 402.154 255.283 401.503 255.791 400.693C256.3 399.882 256.569 398.945 256.569 397.988C256.569 397.031 256.3 396.094 255.791 395.283C255.283 394.472 254.556 393.821 253.695 393.405L241.771 386.471C240.33 385.714 238.727 385.319 237.099 385.319C235.471 385.319 233.867 385.714 232.426 386.471L224.376 391.127L182.777 367.101C181.335 366.344 179.732 365.948 178.104 365.948C176.476 365.948 174.873 366.344 173.432 367.101L156.439 376.914C155.22 377.536 154.173 378.449 153.391 379.572C152.626 380.895 152.39 382.459 152.732 383.948L161.53 427.982C162.044 430.215 163.696 432.124 166.454 433.709L178.389 440.598C179.814 441.377 181.421 441.762 183.045 441.715V441.715C184.675 441.765 186.29 441.379 187.723 440.598L221.552 421.071L231.399 426.754C232.84 427.511 234.444 427.906 236.072 427.906C237.699 427.906 239.303 427.511 240.744 426.754L255.481 418.246C256.343 417.83 257.069 417.179 257.578 416.368C258.086 415.557 258.356 414.62 258.356 413.663C258.356 412.706 258.086 411.769 257.578 410.958C257.069 410.148 256.343 409.497 255.481 409.08L255.493 409.136ZM189.978 411.023L188.002 401.108L197.57 406.691L189.978 411.023Z" fill="#FFB85B"/>
<path d="M321.733 340.573C318.752 338.675 315.458 336.688 311.942 334.645C308.425 332.602 304.919 330.692 301.447 328.85C296.788 326.491 291.898 324.621 286.854 323.268C281.466 321.784 275.908 321 270.319 320.934H269.56C263.915 320.963 258.294 321.66 252.813 323.011C246.544 324.59 240.53 327.048 234.95 330.313C228.865 333.83 224.6 337.324 221.898 341.031C219.257 344.353 217.828 348.476 217.845 352.72C218.05 356.795 219.624 360.681 222.311 363.751C225.219 367.162 228.63 370.11 232.426 372.493C235.508 374.447 238.879 376.479 242.475 378.544C246.07 380.61 249.486 382.508 252.735 384.205C257.393 386.579 262.283 388.469 267.327 389.843C272.714 391.311 278.268 392.08 283.851 392.132H284.633C290.278 392.106 295.899 391.409 301.38 390.055C307.649 388.476 313.663 386.018 319.243 382.754C325.328 379.237 329.593 375.731 332.295 372.035C334.94 368.715 336.37 364.591 336.348 360.346C336.141 356.272 334.568 352.386 331.882 349.315C328.97 345.895 325.547 342.946 321.733 340.573V340.573ZM301.503 363.885C300.547 365.068 299.343 366.025 297.974 366.687C294.946 368.526 291.469 369.492 287.926 369.479C287.539 369.479 287.148 369.479 286.754 369.479C284.955 369.368 283.179 369.019 281.473 368.44C279.588 367.797 277.758 367.002 276.002 366.062C269.6 362.789 263.369 359.189 257.335 355.277C255.966 354.454 254.703 353.468 253.572 352.341C252.987 351.805 252.556 351.123 252.322 350.365C252.322 350.253 252.221 349.918 252.701 349.181C253.651 347.997 254.852 347.04 256.218 346.379C257.994 345.323 259.922 344.547 261.935 344.079C263.302 343.772 264.698 343.614 266.099 343.61C266.523 343.61 266.936 343.61 267.35 343.61C269.15 343.759 270.924 344.134 272.631 344.726C274.539 345.371 276.404 346.14 278.213 347.026C284.633 350.376 290.918 354.027 296.914 357.823C298.31 358.673 299.612 359.669 300.799 360.793C301.336 361.281 301.723 361.912 301.916 362.612C301.938 362.702 302.061 363.104 301.503 363.885Z" fill="#FFB85B"/>
<path d="M419.927 314.157L413.34 310.35L418.174 307.537C419.032 307.119 419.756 306.468 420.262 305.659C420.768 304.849 421.037 303.914 421.037 302.959C421.037 302.004 420.768 301.069 420.262 300.26C419.756 299.45 419.032 298.799 418.174 298.382L406.239 291.493C404.803 290.72 403.191 290.335 401.561 290.376C399.934 290.333 398.325 290.718 396.894 291.493L388.844 296.137L347.244 272.122C345.805 271.367 344.203 270.973 342.578 270.973C340.952 270.973 339.35 271.367 337.911 272.122L320.907 281.936C319.692 282.564 318.647 283.476 317.859 284.593C317.093 285.92 316.857 287.488 317.2 288.981L326.009 333.003C326.512 335.236 328.175 337.146 330.933 338.742L342.857 345.631C344.287 346.406 345.897 346.791 347.524 346.747V346.747C349.15 346.791 350.76 346.406 352.19 345.631L386.02 326.092L395.878 331.786C397.318 332.542 398.919 332.936 400.545 332.936C402.171 332.936 403.772 332.542 405.212 331.786L419.949 323.268C420.811 322.853 421.538 322.203 422.047 321.394C422.556 320.584 422.827 319.647 422.827 318.69C422.827 317.734 422.556 316.797 422.047 315.987C421.538 315.177 420.811 314.527 419.949 314.113L419.927 314.157ZM354.412 316.033L352.436 306.119L362.015 311.645L354.412 316.033Z" fill="#FFB85B"/>
<path d="M465.479 48.2355L454.917 42.1396C454.976 41.7104 455.006 41.2777 455.007 40.8444V37.7853C454.845 34.8219 453.988 31.9383 452.504 29.3681C451.02 26.798 448.951 24.6136 446.466 22.992C445.725 22.4982 444.893 22.1569 444.019 21.9882C443.145 21.8195 442.246 21.8268 441.374 22.0095C440.604 14.2612 435.223 5.50803 428.702 1.74551C421.646 -2.32962 415.919 0.975141 415.919 9.11424V13.7029C415.961 15.9311 416.337 18.1404 417.035 20.2567L408.26 15.1879C405.647 13.6695 403.526 14.8976 403.526 17.9232C403.605 19.5729 404.072 21.1807 404.888 22.6162C405.705 24.0516 406.849 25.2744 408.226 26.1851L465.479 59.2328C468.092 60.7512 470.213 59.5231 470.213 56.4974C470.13 54.8448 469.658 53.2351 468.836 51.7994C468.013 50.3637 466.863 49.1425 465.479 48.2355V48.2355Z" fill="#FFB85B"/>
<path d="M401.427 59.5565L394.728 55.6712C394.746 55.3961 394.746 55.1201 394.728 54.845V52.9024C394.626 51.0134 394.081 49.1749 393.136 47.5359C392.192 45.8969 390.874 44.5033 389.291 43.4682C388.818 43.1545 388.287 42.9377 387.729 42.8304C387.171 42.7231 386.598 42.7274 386.042 42.8429C385.551 37.9193 382.123 32.3369 377.97 29.9365C373.504 27.3463 369.831 29.4452 369.831 34.6368V37.5508C369.847 38.9699 370.081 40.378 370.523 41.7265L364.941 38.4998C363.277 37.5397 361.926 38.3212 361.926 40.2415C361.985 41.2875 362.288 42.3051 362.812 43.2126C363.335 44.1201 364.065 44.8921 364.941 45.4666L401.427 66.5345C403.091 67.4947 404.441 66.7132 404.441 64.7817C404.383 63.7357 404.079 62.7181 403.556 61.8106C403.032 60.9031 402.303 60.1311 401.427 59.5565V59.5565Z" fill="#FFB85B"/>
<path d="M396.76 288.277C393.154 271.743 387.371 255.531 390.954 230.221C394.214 207.288 406.261 186.801 423.421 184.445C434.988 182.905 445.092 195.8 433.771 212.357C431.884 215.115 407.367 239.153 411.442 272.278L409.153 294.318L396.76 288.277Z" fill="#2B254E"/>
<g opacity="0.2">
<path opacity="0.2" d="M396.76 288.277C393.154 271.743 387.371 255.531 390.954 230.221C394.214 207.288 406.261 186.801 423.421 184.445C434.988 182.905 445.092 195.8 433.771 212.357C431.884 215.115 407.367 239.153 411.442 272.278L409.153 294.318L396.76 288.277Z" fill="black"/>
</g>
<path d="M402.767 285.821C402.914 285.753 403.035 285.639 403.111 285.496C403.188 285.353 403.216 285.189 403.191 285.029C396.492 242.603 405.033 210.928 425.52 193.478C425.671 193.35 425.764 193.168 425.781 192.971C425.798 192.775 425.736 192.58 425.61 192.428C425.545 192.345 425.464 192.276 425.371 192.226C425.278 192.176 425.176 192.146 425.071 192.138C424.966 192.129 424.861 192.143 424.761 192.177C424.662 192.212 424.57 192.267 424.493 192.339C403.749 209.979 394.918 242.268 401.661 285.218C401.675 285.316 401.708 285.409 401.758 285.493C401.808 285.578 401.875 285.651 401.954 285.71C402.033 285.768 402.123 285.81 402.218 285.833C402.314 285.856 402.413 285.859 402.51 285.844L402.767 285.821Z" fill="white"/>
<path d="M416.097 300.905C416.019 294.474 419.57 280.451 427.977 268.226C438.583 252.796 455.129 247.749 456.815 239.666C458.847 229.953 448.676 224.404 435.513 229.116C419.67 234.787 400.969 257.597 407.456 296.048L416.097 300.905Z" fill="#60588E"/>
<path d="M411.777 294.139C411.919 294.083 412.043 293.987 412.132 293.862C412.221 293.737 412.272 293.589 412.279 293.436C414.065 259.305 434.329 241.43 444.802 236.752C444.996 236.664 445.147 236.504 445.222 236.305C445.297 236.106 445.291 235.886 445.204 235.692C445.163 235.594 445.102 235.505 445.026 235.431C444.95 235.358 444.859 235.3 444.76 235.263C444.661 235.225 444.555 235.208 444.449 235.213C444.343 235.217 444.239 235.243 444.143 235.29C432.565 240.459 412.502 258.512 410.649 293.346C410.645 293.452 410.661 293.557 410.697 293.657C410.734 293.756 410.789 293.847 410.861 293.925C410.932 294.002 411.018 294.065 411.114 294.11C411.21 294.154 411.314 294.179 411.419 294.184C411.54 294.2 411.663 294.185 411.777 294.139V294.139Z" fill="white"/>
<path d="M252.556 400.584L237.808 409.136C236.864 409.606 235.825 409.85 234.771 409.85C233.717 409.85 232.677 409.606 231.734 409.136L220.246 402.437L184.831 422.935C183.889 423.416 182.846 423.666 181.789 423.666C180.731 423.666 179.688 423.416 178.746 422.935L166.822 416.047C164.857 414.93 163.741 413.713 163.473 412.407L154.686 368.474C154.638 368.216 154.616 367.954 154.619 367.692C154.619 368.541 154.619 379.505 154.619 380.041C154.621 380.265 154.644 380.49 154.686 380.71L163.473 424.644C163.774 425.95 164.891 427.167 166.822 428.295L178.746 435.183C179.691 435.653 180.733 435.898 181.789 435.898C182.844 435.898 183.886 435.653 184.831 435.183L220.246 414.718L231.723 421.328C232.664 421.806 233.704 422.056 234.76 422.056C235.815 422.056 236.856 421.806 237.796 421.328L252.545 412.82C252.894 412.669 253.194 412.424 253.413 412.113C253.632 411.801 253.76 411.436 253.784 411.056V398.775C253.764 399.16 253.639 399.532 253.423 399.851C253.206 400.17 252.907 400.423 252.556 400.584V400.584Z" fill="#2B254E"/>
<path d="M251.987 395.336V383.055C251.962 383.434 251.833 383.799 251.614 384.11C251.396 384.421 251.096 384.667 250.748 384.819L241.068 390.401L251.518 396.43C251.804 396.136 251.971 395.746 251.987 395.336V395.336Z" fill="#2B254E"/>
<path d="M184.853 393.606L192.189 397.859L202.795 391.741L182.084 379.773L184.831 393.606H184.853Z" fill="#2B254E"/>
<path opacity="0.35" d="M184.853 393.606L192.189 397.859L202.795 391.741L182.084 379.773L184.831 393.606H184.853Z" fill="black"/>
<path opacity="0.2" d="M251.987 395.336V383.055C251.962 383.434 251.833 383.799 251.614 384.11C251.396 384.421 251.096 384.667 250.748 384.819L241.068 390.401L251.518 396.43C251.804 396.136 251.971 395.746 251.987 395.336V395.336Z" fill="black"/>
<path opacity="0.2" d="M252.556 400.584L237.808 409.136C236.873 409.641 235.821 409.887 234.76 409.85V422.132C235.823 422.17 236.876 421.919 237.808 421.406L252.556 412.898C252.905 412.747 253.206 412.502 253.424 412.191C253.643 411.88 253.772 411.514 253.796 411.134V398.853C253.761 399.226 253.628 399.582 253.41 399.886C253.192 400.19 252.898 400.431 252.556 400.584V400.584Z" fill="black"/>
<path opacity="0.25" d="M163.395 412.407L154.608 368.474C154.56 368.216 154.538 367.954 154.541 367.692C154.541 368.541 154.541 379.505 154.541 380.041C154.543 380.265 154.566 380.49 154.608 380.71L163.395 424.644C163.447 424.905 163.537 425.157 163.663 425.392V413.11C163.542 412.889 163.452 412.653 163.395 412.407V412.407Z" fill="black"/>
<path opacity="0.35" d="M181.738 423.65C180.68 423.675 179.634 423.425 178.702 422.924L166.778 416.036C165.471 415.404 164.385 414.392 163.663 413.133V425.414C164.388 426.67 165.473 427.681 166.778 428.317L178.702 435.206C179.635 435.703 180.681 435.949 181.738 435.92C181.853 435.931 181.969 435.931 182.084 435.92V423.65C181.97 423.666 181.853 423.666 181.738 423.65V423.65Z" fill="black"/>
<path opacity="0.2" d="M184.831 422.935C184.005 423.394 183.074 423.633 182.129 423.628V435.909C183.073 435.903 184.001 435.666 184.831 435.217L220.246 414.718V402.437L184.831 422.935Z" fill="black"/>
<path opacity="0.35" d="M231.723 409.136L220.246 402.437V414.718L231.723 421.328C232.647 421.84 233.693 422.091 234.749 422.053V409.772C233.701 409.832 232.657 409.612 231.723 409.136V409.136Z" fill="black"/>
<path d="M237.808 409.136C236.862 409.606 235.821 409.851 234.765 409.851C233.71 409.851 232.668 409.606 231.723 409.136L220.246 402.437L184.831 422.935C183.886 423.406 182.844 423.65 181.789 423.65C180.733 423.65 179.691 423.406 178.746 422.935L166.822 416.047C164.872 414.923 163.756 413.71 163.473 412.407L154.697 368.474C154.518 367.796 154.598 367.076 154.921 366.453C155.432 365.796 156.085 365.262 156.83 364.89L173.834 355.076C174.777 354.606 175.817 354.362 176.87 354.362C177.924 354.362 178.964 354.606 179.907 355.076L223.137 380.041L232.817 374.458C233.762 373.988 234.804 373.743 235.859 373.743C236.915 373.743 237.956 373.988 238.902 374.458L250.703 381.336C251.067 381.464 251.382 381.702 251.605 382.017C251.828 382.332 251.948 382.708 251.948 383.094C251.948 383.48 251.828 383.856 251.605 384.171C251.382 384.486 251.067 384.724 250.703 384.853L241.023 390.435L252.512 397.067C252.872 397.197 253.183 397.436 253.403 397.749C253.623 398.063 253.741 398.437 253.741 398.82C253.741 399.203 253.623 399.576 253.403 399.89C253.183 400.204 252.872 400.442 252.512 400.572L237.808 409.136ZM202.795 391.786L182.084 379.828L186.361 401.276L202.795 391.786Z" fill="#2B254E"/>
<path d="M331.804 346.222C331.615 349.517 330.41 352.673 328.354 355.255C325.95 358.537 321.934 361.808 316.307 365.069C311.002 368.183 305.28 370.525 299.314 372.024C293.837 373.384 288.21 374.047 282.567 374C277.259 373.958 271.978 373.226 266.858 371.823C262.042 370.512 257.376 368.701 252.936 366.42C249.72 364.737 246.345 362.877 242.809 360.837C239.274 358.798 235.973 356.803 232.906 354.853C229.395 352.671 226.246 349.955 223.573 346.803C221.328 344.293 219.998 341.098 219.799 337.737C219.866 339.68 219.721 347.841 219.799 350.018C219.996 353.383 221.326 356.583 223.573 359.095C226.252 362.242 229.4 364.957 232.906 367.145C235.988 369.103 239.289 371.094 242.809 373.118C246.33 375.143 249.706 377.004 252.936 378.701C257.392 380.977 262.073 382.784 266.903 384.093C272.024 385.49 277.304 386.222 282.612 386.27C288.255 386.313 293.882 385.646 299.359 384.283C305.325 382.784 311.047 380.442 316.352 377.327C321.994 374.075 326.009 370.804 328.398 367.514C330.609 364.783 331.822 361.38 331.837 357.867C331.726 356.047 331.848 349.003 331.804 346.222Z" fill="#2B254E"/>
<path opacity="0.35" d="M285.604 373.945C284.599 373.945 283.594 374.023 282.601 373.945C277.292 373.902 272.012 373.17 266.892 371.767C262.066 370.477 257.389 368.684 252.936 366.42C249.72 364.737 246.345 362.877 242.809 360.837C239.274 358.798 235.973 356.803 232.906 354.853C229.395 352.671 226.246 349.955 223.573 346.803C221.328 344.293 219.998 341.098 219.799 337.737C219.866 339.68 219.721 347.841 219.799 350.018C219.996 353.383 221.326 356.583 223.573 359.095C226.252 362.242 229.4 364.957 232.906 367.145C235.988 369.103 239.289 371.094 242.809 373.118C246.33 375.143 249.706 377.004 252.936 378.701C257.392 380.977 262.073 382.784 266.903 384.093C272.024 385.49 277.304 386.222 282.612 386.27C283.605 386.27 284.61 386.27 285.615 386.203L285.604 373.945Z" fill="black"/>
<path opacity="0.2" d="M331.804 346.222C331.615 349.517 330.41 352.673 328.354 355.255C325.95 358.537 321.934 361.808 316.307 365.069C311.002 368.183 305.28 370.525 299.314 372.024C294.82 373.122 290.227 373.766 285.604 373.945V386.226C290.228 386.058 294.822 385.414 299.314 384.305C305.28 382.807 311.002 380.465 316.307 377.35C321.949 374.097 325.964 370.826 328.354 367.536C330.564 364.805 331.777 361.403 331.792 357.89C331.725 356.047 331.848 349.003 331.804 346.222Z" fill="black"/>
<path d="M249.899 339.713C250.587 340.42 251.334 341.066 252.132 341.645C252.512 341.399 252.88 341.154 253.304 340.908C255.372 339.691 257.612 338.791 259.947 338.24C262.034 337.774 264.178 337.612 266.311 337.76C268.383 337.914 270.427 338.327 272.396 338.988C274.451 339.698 276.461 340.533 278.414 341.489C284.942 344.927 291.246 348.571 297.327 352.419C298.12 352.91 298.857 353.424 299.56 353.915C300.904 353.128 302.074 352.076 302.999 350.822C303.776 349.754 304.101 348.422 303.903 347.116C303.588 345.752 302.863 344.517 301.826 343.576C300.456 342.311 298.959 341.189 297.36 340.227C291.272 336.364 284.968 332.724 278.447 329.308C276.497 328.344 274.487 327.505 272.43 326.796C270.459 326.14 268.415 325.728 266.345 325.568C264.211 325.424 262.067 325.59 259.981 326.059C257.644 326.601 255.404 327.497 253.338 328.716C251.537 329.642 249.963 330.953 248.727 332.557C248.344 333.078 248.071 333.671 247.925 334.3C247.78 334.93 247.763 335.583 247.878 336.219C248.234 337.541 248.931 338.746 249.899 339.713V339.713Z" fill="#2B254E"/>
<path opacity="0.35" d="M249.899 339.713C250.587 340.42 251.334 341.066 252.132 341.645C252.512 341.399 252.88 341.154 253.304 340.908C255.372 339.691 257.612 338.791 259.947 338.24C262.034 337.774 264.178 337.612 266.311 337.76C268.383 337.914 270.427 338.327 272.396 338.988C274.451 339.698 276.461 340.533 278.414 341.489C284.942 344.927 291.246 348.571 297.327 352.419C298.12 352.91 298.857 353.424 299.56 353.915C300.904 353.128 302.074 352.076 302.999 350.822C303.776 349.754 304.101 348.422 303.903 347.116C303.588 345.752 302.863 344.517 301.826 343.576C300.456 342.311 298.959 341.189 297.36 340.227C291.272 336.364 284.968 332.724 278.447 329.308C276.497 328.344 274.487 327.505 272.43 326.796C270.459 326.14 268.415 325.728 266.345 325.568C264.211 325.424 262.067 325.59 259.981 326.059C257.644 326.601 255.404 327.497 253.338 328.716C251.537 329.642 249.963 330.953 248.727 332.557C248.344 333.078 248.071 333.671 247.925 334.3C247.78 334.93 247.763 335.583 247.878 336.219C248.234 337.541 248.931 338.746 249.899 339.713V339.713Z" fill="black"/>
<path d="M235.262 318.266C240.568 315.146 246.295 312.804 252.266 311.31C257.743 309.951 263.37 309.287 269.013 309.334C274.321 309.378 279.602 310.11 284.722 311.511C289.549 312.819 294.226 314.626 298.678 316.904C302.05 318.683 305.503 320.588 309.039 322.62C312.567 324.663 315.738 326.606 318.719 328.471C322.224 330.668 325.375 333.386 328.063 336.531C330.302 339.044 331.628 342.238 331.826 345.597C331.82 349.11 330.61 352.515 328.398 355.244C326.002 358.533 321.986 361.808 316.352 365.069C311.045 368.185 305.319 370.523 299.348 372.013C293.872 373.382 288.245 374.05 282.601 374C277.296 373.952 272.02 373.22 266.903 371.823C262.072 370.518 257.391 368.711 252.936 366.431C249.709 364.734 246.338 362.88 242.809 360.848C239.281 358.816 235.977 356.818 232.895 354.875C229.391 352.68 226.243 349.962 223.561 346.814C221.316 344.305 219.986 341.11 219.788 337.748C219.799 334.233 221.008 330.827 223.215 328.091C225.62 324.809 229.635 321.534 235.262 318.266ZM297.293 340.171C291.205 336.316 284.901 332.676 278.38 329.252C276.432 328.287 274.421 327.452 272.363 326.751C270.412 326.091 268.387 325.675 266.334 325.512C264.2 325.368 262.056 325.534 259.97 326.003C257.631 326.545 255.39 327.445 253.327 328.672C251.522 329.587 249.947 330.895 248.716 332.501C248.33 333.022 248.056 333.618 247.91 334.25C247.764 334.881 247.749 335.536 247.867 336.174C248.224 337.524 248.946 338.748 249.955 339.713C251.273 341.037 252.746 342.195 254.343 343.163C260.457 347.122 266.77 350.767 273.256 354.082C275.153 355.093 277.128 355.952 279.162 356.65C281.146 357.321 283.211 357.723 285.302 357.845C287.456 357.977 289.617 357.804 291.722 357.331C294.061 356.79 296.302 355.89 298.365 354.663C300.167 353.744 301.742 352.436 302.976 350.834C303.363 350.305 303.642 349.706 303.798 349.07C303.953 348.434 303.981 347.774 303.881 347.127C303.564 345.761 302.835 344.526 301.793 343.588C300.423 342.287 298.914 341.142 297.293 340.171V340.171Z" fill="#2B254E"/>
<path d="M416.991 305.639L402.242 314.146C401.301 314.625 400.261 314.874 399.205 314.874C398.15 314.874 397.109 314.625 396.168 314.146L384.68 307.537L349.209 328.024C348.277 328.523 347.23 328.77 346.173 328.738C345.112 328.769 344.062 328.522 343.125 328.024L331.201 321.124C329.251 320.008 328.134 318.794 327.851 317.484L319.065 273.551C319.044 273.291 319.044 273.03 319.065 272.77C319.065 273.618 319.065 284.582 319.065 285.118C319.049 285.345 319.049 285.572 319.065 285.799L327.851 329.732C328.153 331.038 329.28 332.244 331.201 333.372L343.125 340.261C344.06 340.763 345.111 341.013 346.173 340.986C347.231 341.014 348.278 340.764 349.209 340.261L384.68 319.818L396.157 326.45C397.101 326.92 398.14 327.164 399.194 327.164C400.248 327.164 401.287 326.92 402.231 326.45L416.979 317.942C417.328 317.79 417.627 317.545 417.846 317.234C418.064 316.923 418.193 316.557 418.219 316.178V303.897C418.191 304.271 418.061 304.631 417.845 304.937C417.629 305.244 417.334 305.486 416.991 305.639Z" fill="#2B254E"/>
<path d="M416.432 300.391V288.11C416.405 288.487 416.275 288.85 416.057 289.159C415.838 289.468 415.54 289.711 415.193 289.863L405.502 295.445L415.963 301.474C416.24 301.178 416.406 300.796 416.432 300.391V300.391Z" fill="#2B254E"/>
<path d="M349.288 298.672L356.623 302.926L367.241 296.807L346.519 284.839L349.276 298.672H349.288Z" fill="#2B254E"/>
<path opacity="0.35" d="M349.288 298.672L356.623 302.926L367.241 296.807L346.519 284.839L349.276 298.672H349.288Z" fill="black"/>
<path opacity="0.2" d="M416.432 300.391V288.11C416.405 288.487 416.275 288.85 416.057 289.159C415.838 289.468 415.54 289.711 415.193 289.863L405.502 295.445L415.963 301.474C416.24 301.178 416.406 300.796 416.432 300.391V300.391Z" fill="black"/>
<path opacity="0.2" d="M416.991 305.639L402.242 314.146C401.314 314.659 400.265 314.91 399.205 314.872V327.153C400.263 327.189 401.311 326.942 402.242 326.439L416.991 317.931C417.339 317.779 417.639 317.533 417.857 317.222C418.076 316.911 418.205 316.546 418.23 316.167V303.886C418.203 304.263 418.073 304.626 417.854 304.935C417.636 305.244 417.337 305.487 416.991 305.639Z" fill="black"/>
<path opacity="0.25" d="M327.829 317.462L319.042 273.529C319.022 273.269 319.022 273.007 319.042 272.747C319.042 273.596 319.042 284.56 319.042 285.096C319.027 285.322 319.027 285.55 319.042 285.777L327.829 329.71C327.887 329.967 327.981 330.215 328.108 330.447V318.165C327.985 317.944 327.891 317.708 327.829 317.462V317.462Z" fill="black"/>
<path opacity="0.35" d="M346.184 328.75C345.123 328.78 344.073 328.534 343.136 328.035L331.212 321.135C329.907 320.51 328.824 319.501 328.108 318.244V330.525C328.823 331.786 329.906 332.799 331.212 333.428L343.136 340.316C344.072 340.819 345.122 341.069 346.184 341.042C346.295 341.059 346.408 341.059 346.519 341.042V328.75C346.407 328.761 346.295 328.761 346.184 328.75Z" fill="black"/>
<path opacity="0.2" d="M349.221 328.002C348.391 328.452 347.463 328.69 346.519 328.694V340.975C347.464 340.982 348.395 340.743 349.221 340.283L384.68 319.818V307.537L349.221 328.002Z" fill="black"/>
<path opacity="0.35" d="M396.168 314.146L384.68 307.537V319.818L396.157 326.45C397.088 326.954 398.136 327.201 399.194 327.164V314.883C398.137 314.916 397.091 314.662 396.168 314.146V314.146Z" fill="black"/>
<path d="M402.242 314.146C401.299 314.616 400.259 314.861 399.205 314.861C398.151 314.861 397.112 314.616 396.168 314.146L384.68 307.537L349.221 328.013C348.277 328.483 347.238 328.727 346.184 328.727C345.13 328.727 344.09 328.483 343.147 328.013L331.212 321.124C329.258 320.008 328.13 318.791 327.862 317.484L319.087 273.551C318.912 272.877 318.991 272.161 319.31 271.542C319.82 270.882 320.473 270.348 321.219 269.978L338.223 260.165C339.167 259.695 340.206 259.45 341.26 259.45C342.314 259.45 343.354 259.695 344.297 260.165L387.527 285.118L397.207 279.535C398.149 279.055 399.192 278.805 400.249 278.805C401.307 278.805 402.349 279.055 403.292 279.535L415.227 286.424C415.587 286.555 415.898 286.793 416.118 287.107C416.338 287.42 416.456 287.794 416.456 288.177C416.456 288.56 416.338 288.934 416.118 289.247C415.898 289.561 415.587 289.799 415.227 289.93L405.547 295.512L417.024 302.133C417.388 302.261 417.703 302.499 417.926 302.814C418.149 303.129 418.269 303.505 418.269 303.891C418.269 304.277 418.149 304.654 417.926 304.969C417.703 305.283 417.388 305.522 417.024 305.65L402.242 314.146ZM367.229 296.796L346.519 284.839L350.795 306.286L367.229 296.796Z" fill="#2B254E"/>
<path d="M325.931 409.314C326.215 409.162 326.535 409.089 326.858 409.102C327.18 409.09 327.5 409.163 327.784 409.314L331.413 411.425C331.525 411.461 331.622 411.532 331.691 411.628C331.76 411.723 331.797 411.837 331.797 411.955C331.797 412.072 331.76 412.187 331.691 412.282C331.622 412.378 331.525 412.449 331.413 412.485L315.157 421.875C314.873 422.03 314.554 422.107 314.23 422.098C313.907 422.108 313.587 422.031 313.304 421.875L291.142 409.136C291.013 409.11 290.897 409.04 290.813 408.938C290.73 408.837 290.684 408.709 290.684 408.578C290.684 408.446 290.73 408.319 290.813 408.217C290.897 408.115 291.013 408.045 291.142 408.019L307.13 398.797C307.413 398.641 307.733 398.564 308.056 398.574C308.379 398.567 308.699 398.644 308.983 398.797L312.611 400.896C312.723 400.933 312.82 401.004 312.889 401.099C312.958 401.194 312.995 401.309 312.995 401.427C312.995 401.544 312.958 401.659 312.889 401.754C312.82 401.849 312.723 401.92 312.611 401.957L302.061 408.019L305.767 410.152L315.581 404.491C315.866 404.339 316.186 404.266 316.508 404.279C316.83 404.269 317.149 404.342 317.435 404.491L321.063 406.59C321.192 406.616 321.308 406.686 321.391 406.788C321.475 406.889 321.52 407.017 321.52 407.149C321.52 407.28 321.475 407.408 321.391 407.509C321.308 407.611 321.192 407.681 321.063 407.707L311.249 413.367L315.101 415.6L325.931 409.314Z" fill="#29244B"/>
<path d="M331.346 391.931C331.63 391.777 331.95 391.701 332.273 391.708C332.596 391.698 332.916 391.775 333.199 391.931L336.671 393.929C336.8 393.955 336.916 394.025 337 394.127C337.083 394.229 337.129 394.356 337.129 394.488C337.129 394.619 337.083 394.747 337 394.848C336.916 394.95 336.8 395.02 336.671 395.046L333.545 396.855C331.446 398.075 331.446 399.292 333.545 400.505L341.986 405.373C342.115 405.399 342.231 405.469 342.314 405.571C342.398 405.673 342.443 405.8 342.443 405.932C342.443 406.063 342.398 406.191 342.314 406.292C342.231 406.394 342.115 406.464 341.986 406.49L337.665 408.979C337.381 409.134 337.062 409.211 336.738 409.203C336.415 409.213 336.095 409.135 335.812 408.979L319.824 399.757C319.695 399.732 319.579 399.662 319.496 399.56C319.412 399.458 319.367 399.331 319.367 399.199C319.367 399.068 319.412 398.94 319.496 398.838C319.579 398.737 319.695 398.667 319.824 398.641L323.799 396.341C324.082 396.186 324.402 396.109 324.725 396.118C325.048 396.108 325.369 396.185 325.652 396.341L326.445 396.799C326.489 396.141 326.722 395.509 327.114 394.979C327.701 394.226 328.444 393.609 329.292 393.17L331.346 391.931Z" fill="#29244B"/>
<path d="M347.959 382.34C348.242 382.184 348.562 382.107 348.886 382.117C349.209 382.108 349.529 382.185 349.812 382.34L353.273 384.339C353.402 384.365 353.518 384.435 353.602 384.536C353.685 384.638 353.731 384.766 353.731 384.897C353.731 385.029 353.685 385.156 353.602 385.258C353.518 385.36 353.402 385.429 353.273 385.455L350.147 387.253C348.048 388.466 348.048 389.683 350.147 390.904L358.588 395.772C358.717 395.798 358.833 395.867 358.916 395.969C359 396.071 359.045 396.198 359.045 396.33C359.045 396.461 359 396.589 358.916 396.691C358.833 396.792 358.717 396.862 358.588 396.888L354.267 399.389C353.983 399.541 353.663 399.614 353.34 399.601C353.018 399.612 352.699 399.539 352.414 399.389L336.426 390.156C336.297 390.13 336.181 390.06 336.098 389.958C336.014 389.857 335.969 389.729 335.969 389.598C335.969 389.466 336.014 389.338 336.098 389.237C336.181 389.135 336.297 389.065 336.426 389.039L340.412 386.739C340.696 386.587 341.016 386.514 341.338 386.527C341.66 386.517 341.98 386.59 342.265 386.739L343.047 387.197C343.091 386.542 343.324 385.914 343.716 385.388C344.305 384.635 345.047 384.014 345.894 383.569L347.959 382.34Z" fill="#29244B"/>
<path d="M377.467 374.101C377.825 374.279 378.282 374.525 378.818 374.838C379.354 375.15 379.79 375.407 380.102 375.619C381.043 376.172 381.842 376.936 382.436 377.852C382.923 378.607 383.147 379.502 383.072 380.398C382.946 381.382 382.531 382.307 381.878 383.055C380.979 384.089 379.901 384.951 378.696 385.601C377.313 386.403 375.83 387.018 374.285 387.432C372.788 387.84 371.248 388.072 369.697 388.124C368.217 388.172 366.737 388.049 365.287 387.755C363.949 387.494 362.656 387.043 361.446 386.416C361.078 386.226 360.62 385.98 360.084 385.668C359.548 385.355 359.124 385.098 358.8 384.886C357.844 384.342 357.032 383.576 356.433 382.653C355.942 381.896 355.725 380.994 355.819 380.096C355.954 379.111 356.369 378.185 357.014 377.428C357.897 376.385 358.969 375.518 360.173 374.871C361.572 374.061 363.074 373.445 364.639 373.04C366.154 372.643 367.708 372.411 369.273 372.348C370.752 372.299 372.232 372.423 373.683 372.716C375.002 373 376.276 373.466 377.467 374.101V374.101ZM367.419 382.731C368.345 383.198 369.376 383.417 370.411 383.368C371.449 383.334 372.462 383.042 373.359 382.519C374.274 381.991 374.766 381.421 374.833 380.811C374.9 380.208 374.542 379.627 373.716 379.091C373.359 378.83 372.986 378.592 372.6 378.377C372.175 378.131 371.762 377.919 371.371 377.741C370.44 377.284 369.41 377.065 368.374 377.104C367.337 377.143 366.326 377.439 365.432 377.964C364.516 378.489 364.025 379.08 363.958 379.661C363.891 380.241 364.26 380.844 365.075 381.391C365.804 381.917 366.586 382.366 367.408 382.731H367.419Z" fill="#29244B"/>
<path d="M386.388 360.156C386.671 360 386.991 359.923 387.315 359.933C387.638 359.924 387.958 360.001 388.241 360.156L391.702 362.155C391.831 362.181 391.947 362.25 392.031 362.352C392.114 362.454 392.16 362.581 392.16 362.713C392.16 362.844 392.114 362.972 392.031 363.074C391.947 363.175 391.831 363.245 391.702 363.271L388.576 365.069C386.477 366.282 386.477 367.499 388.576 368.719L397.017 373.587C397.146 373.613 397.262 373.683 397.345 373.785C397.429 373.886 397.474 374.014 397.474 374.146C397.474 374.277 397.429 374.405 397.345 374.506C397.262 374.608 397.146 374.678 397.017 374.704L392.696 377.194C392.413 377.349 392.093 377.427 391.769 377.417C391.446 377.424 391.127 377.347 390.843 377.194L374.855 367.971C374.726 367.946 374.61 367.876 374.527 367.774C374.443 367.672 374.398 367.545 374.398 367.413C374.398 367.282 374.443 367.154 374.527 367.052C374.61 366.951 374.726 366.881 374.855 366.855L378.841 364.555C379.124 364.399 379.444 364.322 379.767 364.332C380.09 364.325 380.41 364.402 380.694 364.555L381.476 365.013C381.52 364.355 381.753 363.723 382.145 363.193C382.732 362.44 383.475 361.823 384.323 361.384L386.388 360.156Z" fill="#29244B"/>
<path d="M149.762 258.814C145.051 258.624 142.974 259.093 143.7 264.072C144.426 269.052 144.649 272.892 144.649 272.892C144.649 272.892 153.034 273.138 156.93 270.961C160.827 268.784 156.841 259.093 149.762 258.814Z" fill="#2B254E"/>
<path opacity="0.5" d="M149.762 258.814C145.051 258.624 142.974 259.093 143.7 264.072C144.426 269.052 144.649 272.892 144.649 272.892C144.649 272.892 153.034 273.138 156.93 270.961C160.827 268.784 156.841 259.093 149.762 258.814Z" fill="black"/>
<path d="M150.511 280.205C150.203 280.203 149.897 280.173 149.595 280.116C148.359 279.871 147.272 279.145 146.57 278.098C145.869 277.052 145.612 275.77 145.855 274.534C147.072 268.348 148.278 263.57 149.349 259.361C150.969 253.503 152.144 247.532 152.866 241.497C153.756 232.129 151.736 222.714 147.083 214.534C146.766 213.999 146.557 213.407 146.468 212.791C146.38 212.175 146.413 211.548 146.567 210.945C146.721 210.342 146.992 209.775 147.365 209.277C147.738 208.779 148.206 208.359 148.741 208.042C149.276 207.725 149.869 207.516 150.484 207.427C151.1 207.339 151.728 207.372 152.33 207.526C152.933 207.68 153.5 207.952 153.998 208.325C154.496 208.697 154.916 209.165 155.233 209.7C160.947 219.639 163.414 231.115 162.289 242.524C161.529 248.99 160.275 255.387 158.538 261.661C157.511 265.758 156.305 270.403 155.189 276.342C154.983 277.431 154.402 278.414 153.548 279.119C152.693 279.825 151.619 280.209 150.511 280.205V280.205Z" fill="#60588E"/>
<path d="M139.167 286.614C138.946 287.527 138.946 288.48 139.167 289.394C139.826 290.622 143.477 292.129 145.397 292.922C148.052 293.944 150.216 295.941 151.448 298.504C153.592 302.423 157.5 305.069 161.865 306.733C167.724 308.792 174.071 309.022 180.064 307.392C187.533 305.527 187.879 301.028 187.879 301.028C187.879 301.028 187.991 296.807 186.07 296.271C184.15 295.736 139.167 286.614 139.167 286.614Z" fill="#60588E"/>
<path d="M142.182 270.939C141.969 272.268 141.667 273.58 141.277 274.869C140.161 278.408 138.43 282.059 139.167 286.614C140.395 288.847 142.963 289.628 144.883 290.477C147.463 291.593 149.349 292.386 151.169 294.619C154.519 298.627 157.656 303.696 167.682 305.002C177.708 306.309 185.01 302.658 186.662 299.71C188.314 296.763 186.461 294.228 179.885 291.236C176.536 289.707 168.932 283.421 168.061 282.617C167.255 281.797 166.537 280.895 165.918 279.926C164.536 277.921 163.62 275.632 163.238 273.227C162.944 270.683 163.068 268.107 163.607 265.602C163.718 265.021 164.009 264.418 163.763 263.894C163.127 262.487 160.927 262.855 159.71 262.956C157.89 263.142 156.085 263.452 154.307 263.883C153.717 263.952 153.159 264.188 152.699 264.564C152.333 265.006 152.09 265.538 151.995 266.104C151.761 266.942 151.515 267.779 151.247 268.594C151.188 268.89 151.07 269.172 150.902 269.423C150.733 269.674 150.517 269.889 150.265 270.057C149.985 270.165 149.678 270.185 149.386 270.113C149.095 270.041 148.832 269.881 148.635 269.655C148.254 269.195 148.037 268.621 148.021 268.025C148.021 267.422 148.021 266.83 148.088 266.238C148.152 265.667 148.039 265.09 147.764 264.586C147.105 263.548 145.442 263.38 145.017 262.23C144.926 261.913 144.925 261.578 145.013 261.26C145.102 260.943 145.277 260.656 145.52 260.433C146.027 260.004 146.656 259.746 147.317 259.696C147.968 259.651 148.621 259.651 149.271 259.696L149.628 258.311C148.082 258.084 146.503 258.285 145.062 258.892C144.153 259.276 143.413 259.973 142.974 260.857C142.583 261.958 142.525 263.15 142.807 264.284C143.086 266.897 142.606 268.326 142.182 270.939Z" fill="#2B254E"/>
<path opacity="0.35" d="M142.182 270.939C141.969 272.268 141.667 273.58 141.277 274.869C140.161 278.408 138.43 282.059 139.167 286.614C140.395 288.847 142.963 289.628 144.883 290.477C147.463 291.593 149.349 292.386 151.169 294.619C154.519 298.627 157.656 303.696 167.682 305.002C177.708 306.309 185.01 302.658 186.662 299.71C188.314 296.763 186.461 294.228 179.885 291.236C176.536 289.707 168.932 283.421 168.061 282.617C167.255 281.797 166.537 280.895 165.918 279.926C164.536 277.921 163.62 275.632 163.238 273.227C162.944 270.683 163.068 268.107 163.607 265.602C163.718 265.021 164.009 264.418 163.763 263.894C163.127 262.487 160.927 262.855 159.71 262.956C157.89 263.142 156.085 263.452 154.307 263.883C153.717 263.952 153.159 264.188 152.699 264.564C152.333 265.006 152.09 265.538 151.995 266.104C151.761 266.942 151.515 267.779 151.247 268.594C151.188 268.89 151.07 269.172 150.902 269.423C150.733 269.674 150.517 269.889 150.265 270.057C149.985 270.165 149.678 270.185 149.386 270.113C149.095 270.041 148.832 269.881 148.635 269.655C148.254 269.195 148.037 268.621 148.021 268.025C148.021 267.422 148.021 266.83 148.088 266.238C148.152 265.667 148.039 265.09 147.764 264.586C147.105 263.548 145.442 263.38 145.017 262.23C144.926 261.913 144.925 261.578 145.013 261.26C145.102 260.943 145.277 260.656 145.52 260.433C146.027 260.004 146.656 259.746 147.317 259.696C147.968 259.651 148.621 259.651 149.271 259.696L149.628 258.311C148.082 258.084 146.503 258.285 145.062 258.892C144.153 259.276 143.413 259.973 142.974 260.857C142.583 261.958 142.525 263.15 142.807 264.284C143.086 266.897 142.606 268.326 142.182 270.939Z" fill="black"/>
<path d="M161.028 303.261C161.019 300.93 161.635 298.639 162.814 296.628C163.992 294.617 165.689 292.959 167.727 291.828C174.928 287.518 179.628 289.673 182.029 291.158C184.876 292.933 189.04 296.74 186.874 299.889C184.541 303.238 180.555 305.058 172.952 305.661C165.348 306.264 161.028 303.261 161.028 303.261Z" fill="#FAFAFA"/>
<path d="M151.091 277.392C151.224 277.407 151.358 277.389 151.483 277.34C151.607 277.292 151.718 277.214 151.806 277.113C152.799 276.052 158.839 272.401 163.406 274.277C163.517 274.109 163.707 272.993 163.16 272.647C160.939 272.154 158.632 272.201 156.433 272.783C154.234 273.366 152.207 274.468 150.522 275.996C150.387 276.156 150.32 276.362 150.335 276.57C150.349 276.779 150.444 276.973 150.6 277.113C150.731 277.255 150.902 277.352 151.091 277.392V277.392Z" fill="#FAFAFA"/>
<path d="M165.326 279.055C165.327 278.735 165.262 278.419 165.135 278.125C165.009 277.831 164.823 277.566 164.589 277.347C159.387 276.61 154.161 279.882 153.011 281.121C152.878 281.282 152.813 281.489 152.83 281.697C152.846 281.906 152.944 282.099 153.101 282.237C153.238 282.357 153.411 282.427 153.592 282.438C153.724 282.453 153.857 282.436 153.981 282.389C154.105 282.343 154.217 282.268 154.307 282.17C155.267 281.177 161.218 277.727 165.326 279.055Z" fill="#FAFAFA"/>
<path d="M173.197 286.793C173.119 286.257 172.081 285.453 171.199 285.23C165.449 284.839 160.592 289.215 159.643 290.667C159.585 290.757 159.546 290.858 159.527 290.964C159.509 291.07 159.513 291.178 159.538 291.282C159.563 291.387 159.609 291.485 159.673 291.571C159.737 291.657 159.818 291.729 159.911 291.783C160.069 291.877 160.253 291.92 160.436 291.906C160.567 291.896 160.694 291.857 160.808 291.791C160.922 291.725 161.02 291.635 161.095 291.526C161.943 290.242 167.749 285.341 173.197 286.793Z" fill="#FAFAFA"/>
<path d="M156.584 287.44C156.716 287.434 156.845 287.4 156.962 287.341C157.079 287.281 157.183 287.197 157.265 287.094C158.103 285.922 163.149 281.512 168.341 282.84C168.341 282.383 167.425 281.478 166.956 281.355C161.809 280.886 156.83 284.783 155.791 286.156C155.672 286.332 155.627 286.549 155.666 286.758C155.706 286.968 155.827 287.153 156.004 287.273C156.173 287.393 156.377 287.452 156.584 287.44Z" fill="#FAFAFA"/>
<path d="M97.3663 275.282C92.6771 274.902 90.567 275.282 91.0917 280.283C91.6165 285.285 91.6723 289.137 91.6723 289.137C91.6723 289.137 100.035 289.729 104.021 287.719C108.006 285.71 104.445 275.862 97.3663 275.282Z" fill="#2B254E"/>
<path opacity="0.5" d="M97.3663 275.282C92.6771 274.902 90.567 275.282 91.0917 280.283C91.6165 285.285 91.6723 289.137 91.6723 289.137C91.6723 289.137 100.035 289.729 104.021 287.719C108.006 285.71 104.445 275.862 97.3663 275.282Z" fill="black"/>
<path d="M97.2212 296.685C96.913 296.671 96.6066 296.63 96.3057 296.562C95.6995 296.416 95.1279 296.153 94.6239 295.786C94.1198 295.419 93.6932 294.956 93.3685 294.424C93.0438 293.892 92.8274 293.301 92.7318 292.685C92.6361 292.069 92.6631 291.44 92.8111 290.834C94.2849 284.705 95.6916 279.993 96.9309 275.818C98.8 270.043 100.226 264.135 101.196 258.144C102.477 248.823 100.855 239.335 96.5513 230.969C96.0525 229.871 95.99 228.625 96.3768 227.483C96.7635 226.341 97.5703 225.39 98.6334 224.821C99.6965 224.253 100.936 224.11 102.101 224.422C103.265 224.735 104.267 225.479 104.903 226.503C110.172 236.657 112.154 248.198 110.574 259.528C109.544 265.962 108.021 272.308 106.019 278.508C104.813 282.561 103.451 287.15 102.033 293.022C101.782 294.097 101.164 295.051 100.286 295.719C99.4078 296.388 98.324 296.729 97.2212 296.685V296.685Z" fill="#60588E"/>
<path d="M85.621 302.613C85.3479 303.514 85.2981 304.468 85.4759 305.393C86.0788 306.643 89.6515 308.307 91.5383 309.178C94.153 310.321 96.2305 312.423 97.344 315.051C99.3313 319.048 103.127 321.861 107.392 323.703C113.16 326.005 119.491 326.499 125.546 325.121C133.082 323.58 133.585 319.092 133.585 319.092C133.585 319.092 133.875 314.883 131.977 314.269C130.079 313.655 85.621 302.613 85.621 302.613Z" fill="#60588E"/>
<path d="M89.2831 287.083C88.9951 288.401 88.6222 289.699 88.1666 290.968C86.9385 294.463 85.0181 298.024 85.5652 302.613C86.6817 304.846 89.2161 305.784 91.1476 306.722C93.682 307.972 95.5018 308.809 97.2547 311.121C100.403 315.263 103.351 320.465 113.321 322.185C123.291 323.904 130.738 320.566 132.502 317.719C134.266 314.872 132.502 312.237 126.082 308.966C122.811 307.302 115.464 300.726 114.627 299.866C112.246 297.171 110.695 293.844 110.161 290.287C109.975 287.733 110.205 285.165 110.842 282.684C110.987 282.115 111.3 281.567 111.077 280.976C110.496 279.547 108.285 279.859 107.069 279.859C105.242 279.965 103.425 280.2 101.631 280.563C101.037 280.607 100.468 280.82 99.9901 281.177C99.6085 281.605 99.3432 282.124 99.2197 282.684C98.9629 283.51 98.6838 284.336 98.3712 285.151C98.2249 285.739 97.8515 286.245 97.3328 286.558C97.0502 286.655 96.7446 286.663 96.4572 286.582C96.1697 286.5 95.9142 286.332 95.7251 286.1C95.3568 285.625 95.1636 285.038 95.178 284.437C95.1927 283.839 95.2411 283.243 95.3232 282.65C95.4038 282.083 95.3144 281.504 95.0664 280.987C94.4523 279.926 92.8335 279.692 92.4204 278.519C92.3367 278.201 92.347 277.865 92.45 277.552C92.553 277.239 92.7443 276.962 93.0009 276.755C93.5161 276.337 94.1573 276.105 94.8208 276.097C95.475 276.053 96.1315 276.053 96.7858 276.097L97.1877 274.735C95.652 274.443 94.066 274.574 92.599 275.114C91.6745 275.464 90.9061 276.133 90.433 277.001C90.0011 278.082 89.8925 279.265 90.1204 280.406C90.3549 283.086 89.819 284.481 89.2831 287.083Z" fill="#2B254E"/>
<path opacity="0.35" d="M89.2831 287.083C88.9951 288.401 88.6222 289.699 88.1666 290.968C86.9385 294.463 85.0181 298.024 85.5652 302.613C86.6817 304.846 89.2161 305.784 91.1476 306.722C93.682 307.972 95.5018 308.809 97.2547 311.121C100.403 315.263 103.351 320.465 113.321 322.185C123.291 323.904 130.738 320.566 132.502 317.719C134.266 314.872 132.502 312.237 126.082 308.966C122.811 307.302 115.464 300.726 114.627 299.866C112.246 297.171 110.695 293.844 110.161 290.287C109.975 287.733 110.205 285.165 110.842 282.684C110.987 282.115 111.3 281.567 111.077 280.976C110.496 279.547 108.285 279.859 107.069 279.859C105.242 279.965 103.425 280.2 101.631 280.563C101.037 280.607 100.468 280.82 99.9901 281.177C99.6085 281.605 99.3432 282.124 99.2197 282.684C98.9629 283.51 98.6838 284.336 98.3712 285.151C98.2249 285.739 97.8515 286.245 97.3328 286.558C97.0502 286.655 96.7446 286.663 96.4572 286.582C96.1697 286.5 95.9142 286.332 95.7251 286.1C95.3568 285.625 95.1636 285.038 95.178 284.437C95.1927 283.839 95.2411 283.243 95.3232 282.65C95.4038 282.083 95.3144 281.504 95.0664 280.987C94.4523 279.926 92.8335 279.692 92.4204 278.519C92.3367 278.201 92.347 277.865 92.45 277.552C92.553 277.239 92.7443 276.962 93.0009 276.755C93.5161 276.337 94.1573 276.105 94.8208 276.097C95.475 276.053 96.1315 276.053 96.7858 276.097L97.1877 274.735C95.652 274.443 94.066 274.574 92.599 275.114C91.6745 275.464 90.9061 276.133 90.433 277.001C90.0011 278.082 89.8925 279.265 90.1204 280.406C90.3549 283.086 89.819 284.481 89.2831 287.083Z" fill="black"/>
<path d="M106.756 320.164C106.84 317.831 107.55 315.564 108.811 313.6C110.072 311.636 111.838 310.047 113.924 308.999C121.304 304.991 125.915 307.336 128.248 308.932C131.017 310.819 135.014 314.816 132.714 317.864C130.235 321.135 126.183 322.765 118.557 323.045C110.931 323.324 106.756 320.164 106.756 320.164Z" fill="#FAFAFA"/>
<path d="M97.9246 293.849C98.0554 293.869 98.1892 293.858 98.3152 293.818C98.4413 293.777 98.556 293.707 98.6503 293.614C99.6774 292.587 105.863 289.148 110.351 291.27C110.474 291.091 110.708 289.997 110.172 289.628C107.972 289.044 105.663 288.997 103.441 289.491C101.218 289.984 99.1464 291.004 97.3998 292.464C97.2526 292.613 97.1699 292.813 97.1699 293.022C97.1699 293.232 97.2526 293.432 97.3998 293.581C97.5377 293.729 97.7236 293.824 97.9246 293.849Z" fill="#FAFAFA"/>
<path d="M112.07 296.171C112.091 295.85 112.042 295.527 111.926 295.227C111.81 294.926 111.631 294.654 111.4 294.429C106.242 293.469 100.883 296.517 99.6886 297.712C99.5413 297.86 99.4587 298.061 99.4587 298.27C99.4587 298.479 99.5413 298.68 99.6886 298.828C99.852 298.981 100.068 299.066 100.291 299.066C100.515 299.066 100.731 298.981 100.894 298.828C101.933 297.857 108.017 294.664 112.07 296.171Z" fill="#FAFAFA"/>
<path d="M119.607 304.187C119.607 303.651 118.49 302.803 117.675 302.546C111.947 301.91 106.912 306.085 105.896 307.492C105.836 307.58 105.795 307.679 105.774 307.784C105.754 307.888 105.754 307.996 105.776 308.1C105.798 308.204 105.841 308.303 105.902 308.39C105.963 308.478 106.04 308.552 106.131 308.608C106.282 308.71 106.462 308.761 106.644 308.754C106.777 308.748 106.907 308.713 107.025 308.651C107.142 308.589 107.245 308.502 107.325 308.396C108.218 307.202 114.225 302.546 119.607 304.187Z" fill="#FAFAFA"/>
<path d="M102.971 304.187C103.105 304.188 103.237 304.159 103.359 304.103C103.48 304.047 103.588 303.966 103.674 303.863C104.568 302.747 109.782 298.527 114.917 300.079C114.973 299.621 114.058 298.694 113.6 298.538C108.475 297.857 103.339 301.541 102.301 302.87C102.238 302.954 102.192 303.05 102.167 303.151C102.141 303.253 102.136 303.359 102.151 303.463C102.167 303.567 102.203 303.667 102.257 303.757C102.312 303.846 102.384 303.924 102.469 303.986C102.61 304.106 102.786 304.177 102.971 304.187V304.187Z" fill="#FAFAFA"/>
<path d="M218.392 192.986C213.859 192.986 208.21 191.39 201.935 187.114C201.195 186.606 200.687 185.825 200.522 184.942C200.358 184.06 200.551 183.148 201.059 182.408C201.567 181.668 202.348 181.159 203.23 180.995C204.113 180.831 205.025 181.024 205.765 181.531C214.205 187.292 220.279 186.622 222.512 185.316C223.045 184.904 223.485 184.383 223.802 183.788C224.12 183.194 224.308 182.539 224.354 181.866C224.89 178.517 223.796 173.135 219.129 167.866C209.259 156.701 196.878 150.996 177.719 148.707C176.831 148.6 176.021 148.145 175.468 147.442C174.916 146.738 174.665 145.844 174.772 144.956C174.878 144.067 175.333 143.258 176.037 142.705C176.74 142.152 177.635 141.902 178.523 142.008C199.2 144.464 213.279 151.063 224.198 163.4C229.49 169.373 232.013 176.686 231.053 182.96C230.871 184.627 230.315 186.231 229.428 187.654C228.541 189.076 227.345 190.281 225.928 191.178C223.622 192.441 221.02 193.066 218.392 192.986V192.986Z" fill="#60588E"/>
<path d="M175.542 106.102C180.666 101.268 185.188 87.0665 182.855 72.1504C180.521 57.2343 166.744 43.2895 161.251 40.2639C155.758 37.2382 151.895 41.1459 153.436 46.7171C155.468 54.2756 158.002 71.2795 143.879 78.7934C145.45 86.0625 148.636 92.8851 153.201 98.756C160.481 107.543 175.542 106.102 175.542 106.102Z" fill="#2B254E"/>
<path opacity="0.75" d="M175.542 106.102C180.666 101.268 185.188 87.0665 182.855 72.1504C180.521 57.2343 166.744 43.2895 161.251 40.2639C155.758 37.2382 151.895 41.1459 153.436 46.7171C155.468 54.2756 158.002 71.2795 143.879 78.7934C145.45 86.0625 148.636 92.8851 153.201 98.756C160.481 107.543 175.542 106.102 175.542 106.102Z" fill="white"/>
<path d="M156.383 49.6311C155.157 49.6355 153.938 49.4548 152.766 49.0952C152.594 49.0388 152.451 48.9172 152.367 48.7565C152.284 48.5958 152.266 48.4087 152.319 48.2355C152.347 48.1504 152.391 48.0717 152.45 48.0037C152.508 47.9358 152.579 47.88 152.659 47.8396C152.739 47.7992 152.826 47.7749 152.915 47.7681C153.004 47.7613 153.094 47.7722 153.179 47.8001C157.645 49.218 163.618 47.5656 165.125 42.9211C165.152 42.8368 165.196 42.7586 165.253 42.6911C165.31 42.6236 165.38 42.5681 165.459 42.5276C165.538 42.4872 165.624 42.4627 165.712 42.4555C165.801 42.4483 165.889 42.4585 165.974 42.4857C166.058 42.5128 166.136 42.5562 166.204 42.6136C166.271 42.6709 166.327 42.7409 166.367 42.8197C166.408 42.8985 166.432 42.9845 166.439 43.0728C166.446 43.1611 166.436 43.2499 166.409 43.3342C165.058 47.521 160.648 49.6311 156.383 49.6311Z" fill="#2B254E"/>
<path d="M161.463 59.0206C158.837 59.0049 156.262 58.288 154.005 56.944C153.859 56.8499 153.754 56.7033 153.712 56.5345C153.671 56.3656 153.695 56.1872 153.781 56.0358C153.867 55.8845 154.007 55.7716 154.173 55.7204C154.339 55.6692 154.519 55.6836 154.675 55.7605C156.166 56.6667 157.822 57.2668 159.547 57.5256C161.273 57.7843 163.032 57.6967 164.723 57.2678C170.886 55.7829 172.204 52.1767 172.483 50.6917C172.488 50.5952 172.514 50.5009 172.559 50.4151C172.603 50.3293 172.666 50.254 172.742 50.1942C172.818 50.1345 172.906 50.0916 173 50.0684C173.094 50.0453 173.191 50.0424 173.287 50.06C173.382 50.0776 173.472 50.1152 173.551 50.1704C173.631 50.2256 173.698 50.2971 173.747 50.3801C173.797 50.4631 173.828 50.5557 173.839 50.6518C173.85 50.7479 173.841 50.8452 173.811 50.9374C173.476 52.6791 171.969 56.9105 165.036 58.5852C163.866 58.8674 162.667 59.0136 161.463 59.0206Z" fill="#2B254E"/>
<path d="M168.475 70.766C165.653 70.7997 162.855 70.2521 160.254 69.1572C157.653 68.0624 155.306 66.4437 153.358 64.4021C153.231 64.2745 153.16 64.1019 153.16 63.922C153.16 63.7421 153.231 63.5695 153.358 63.4419C153.42 63.3777 153.495 63.3267 153.577 63.2919C153.66 63.2571 153.748 63.2392 153.838 63.2392C153.927 63.2392 154.016 63.2571 154.098 63.2919C154.181 63.3267 154.255 63.3777 154.318 63.4419C156.138 65.3508 158.333 66.8629 160.766 67.8831C163.198 68.9033 165.815 69.4097 168.452 69.3704C177.161 69.3704 179.74 65.2841 180.845 63.5424C180.892 63.4658 180.953 63.3994 181.026 63.3471C181.099 63.2948 181.182 63.2577 181.269 63.2379C181.357 63.2181 181.447 63.2161 181.535 63.232C181.624 63.2478 181.708 63.2812 181.783 63.3302C181.935 63.4267 182.043 63.5795 182.083 63.7553C182.123 63.9311 182.091 64.1155 181.995 64.2681C180.89 66.0656 177.92 70.766 168.475 70.766Z" fill="#2B254E"/>
<path d="M172.025 84.3869C169.338 84.3881 166.669 83.9545 164.12 83.103C157.712 80.937 153.078 77.2192 150.365 72.0611C150.304 71.9054 150.301 71.7325 150.359 71.5753C150.417 71.4181 150.531 71.2877 150.678 71.209C150.826 71.1303 150.998 71.1087 151.16 71.1485C151.323 71.1883 151.465 71.2866 151.56 71.4247C154.15 76.3483 158.393 79.7424 164.556 81.819C173.041 84.6772 181.147 81.819 183.413 79.7424C183.548 79.6465 183.714 79.6031 183.878 79.6204C184.043 79.6376 184.196 79.7144 184.308 79.8362C184.42 79.9581 184.484 80.1167 184.488 80.2823C184.492 80.4479 184.435 80.6093 184.329 80.7361C182.598 82.3773 177.842 84.3869 172.025 84.3869Z" fill="#2B254E"/>
<path opacity="0.1" d="M154.898 93.9886C167.057 80.1108 162.356 58.2614 159.364 51.9645C155.155 43.1444 156.941 39.2702 160.626 39.9624C155.479 37.5732 151.962 41.3692 153.391 46.6613C155.423 54.2198 157.957 71.2237 143.834 78.7376C145.276 85.2742 148.001 91.4598 151.85 96.9361C152.943 96.0366 153.963 95.0509 154.898 93.9886V93.9886Z" fill="black"/>
<path d="M186.707 188.465C182.576 178.416 180.521 150.605 181.37 132.34C184.139 131.759 187.522 127.985 186.16 123.106C184.931 118.719 183.737 118.138 180.03 113.404C177.395 110.055 175.564 105.589 173.197 101.927C165.069 89.4892 154.742 81.1938 139.536 77.6099C138.917 77.4626 138.335 77.1914 137.825 76.8128C137.314 76.4341 136.886 75.9559 136.565 75.4069C136.245 74.8579 136.039 74.2497 135.961 73.619C135.882 72.9882 135.932 72.3481 136.108 71.7373C137.079 68.3879 137.906 64.0113 136.89 60.7958C135.003 54.8562 131.251 54.2533 128.773 55.3586C126.294 56.4639 126.104 58.9202 126.852 62.906C127.6 66.8918 126.428 67.5952 125.1 67.1709C123.771 66.7466 122.777 59.4896 113.499 56.0843C104.221 52.6791 97.9581 57.2008 98.1144 60.9745C98.2819 65.1613 101.319 65.4404 107.761 66.1772C110.558 66.4409 113.191 67.6179 115.252 69.5267C115.833 70.1354 116.241 70.8884 116.433 71.7077C116.626 72.5269 116.596 73.3827 116.346 74.1865C116.097 74.9902 115.638 75.7128 115.015 76.2793C114.393 76.8459 113.631 77.2359 112.807 77.409C89.2161 82.6452 70.9506 102.306 65.7143 128.834C64.8619 133.599 64.3101 138.413 64.0619 143.247V143.247C62.4181 140.455 59.7509 138.412 56.6262 137.553C52.071 136.437 50.2623 138.614 50.3293 140.646C50.3963 142.678 52.9195 143.649 55.4762 144.71C59.5737 146.407 60.2436 147.981 60.2436 147.981C58.1099 147.654 55.928 147.873 53.902 148.618C51.0996 149.857 50.3628 152.883 53.0758 154.044C54.583 154.68 56.8941 153.53 59.2722 152.927C60.7683 152.581 63.5372 152.023 63.7381 153.82C63.7381 158.03 63.7381 162.417 63.8386 166.939C64.1847 179.678 66.4177 188.398 64.3857 199.953C62.8338 208.706 55.1748 215.584 62.8673 222.852C64.2683 224.159 65.9642 225.109 67.8108 225.62C69.6573 226.131 71.6001 226.189 73.4738 225.788C74.7029 225.565 75.9707 225.827 77.0114 226.518C78.0521 227.209 78.7849 228.276 79.0562 229.495C79.9158 233.124 82.5396 237.545 89.9529 239.543C96.7858 241.352 101.118 239.275 103.831 236.741C104.274 236.297 104.803 235.948 105.385 235.715C105.968 235.482 106.592 235.371 107.219 235.388C107.846 235.404 108.463 235.549 109.032 235.812C109.601 236.076 110.111 236.452 110.53 236.92C113.377 240.325 118.658 243.976 128.203 243.931C137.749 243.886 142.55 239.744 144.95 236.216C145.606 235.202 146.624 234.476 147.796 234.188C148.969 233.899 150.208 234.07 151.259 234.664C154.876 236.808 160.704 238.527 168.006 234.664C173.398 231.784 174.794 226.615 174.928 222.383C174.948 221.73 175.106 221.089 175.39 220.501C175.675 219.914 176.08 219.392 176.579 218.971C177.078 218.55 177.66 218.238 178.287 218.057C178.915 217.875 179.573 217.828 180.22 217.917C182.361 218.359 184.585 218.138 186.598 217.285C188.61 216.431 190.315 214.985 191.485 213.139C196.587 205.368 190.413 197.519 186.707 188.465Z" fill="#2B254E"/>
<g opacity="0.1">
<path opacity="0.1" d="M55.4762 144.71C59.5737 146.407 60.2436 147.981 60.2436 147.981C58.1099 147.654 55.928 147.873 53.902 148.618C51.0996 149.857 50.3628 152.883 53.0758 154.044C54.583 154.68 56.8941 153.53 59.2722 152.927C60.7683 152.581 63.5372 152.023 63.7381 153.82C63.7381 158.03 63.7381 162.417 63.8386 166.939C64.1847 179.678 66.4177 188.398 64.3857 199.953C62.8338 208.706 55.1748 215.584 62.8673 222.852C64.4387 224.356 66.4127 225.373 68.5501 225.777C68.3157 225.654 64.7206 219.871 68.9632 211.531C74.9252 199.797 74.5456 192.462 72.9937 168.692C71.0845 139.664 74.6461 127.193 85.1968 106.649C96.0154 85.5927 113.209 84.5767 120.511 78.9944C124.486 75.9576 123.123 70.4533 119.651 66.9588C116.737 64.0224 112.182 62.8278 109.491 62.5487C103.619 61.9458 98.159 60.9186 99.2643 57.9823C98.5426 58.7898 98.1449 59.8356 98.1479 60.9186C98.3153 65.1054 101.352 65.3845 107.794 66.1214C110.591 66.3851 113.224 67.5621 115.286 69.4708C115.867 70.0796 116.275 70.8326 116.467 71.6518C116.659 72.4711 116.629 73.3269 116.38 74.1306C116.131 74.9344 115.671 75.6569 115.049 76.2235C114.427 76.79 113.664 77.1801 112.841 77.3531C89.2161 82.6452 70.9506 102.306 65.7143 128.834C64.8619 133.599 64.3101 138.413 64.0619 143.247V143.247C62.4181 140.455 59.7509 138.412 56.6262 137.553C52.071 136.437 50.2623 138.614 50.3293 140.646C50.3963 142.678 52.9195 143.649 55.4762 144.71Z" fill="black"/>
<path opacity="0.1" d="M85.1521 229.663C82.16 225.71 79.7372 225.063 75.5728 225.945C76.4226 226.171 77.1943 226.626 77.8044 227.26C78.4144 227.893 78.8396 228.682 79.0338 229.54C79.8935 233.168 82.5172 237.59 89.9306 239.588C94.7538 240.872 98.36 240.202 100.995 238.806C90.2656 241.106 88.1554 233.604 85.1521 229.663Z" fill="black"/>
<path opacity="0.1" d="M136.599 242.569C131.318 243.261 126.372 242.067 120.812 237.991C114.817 233.604 111.88 234.017 108.174 235.502C109.091 235.707 109.916 236.209 110.518 236.931C113.365 240.336 118.646 243.987 128.192 243.942C131.052 243.967 133.896 243.502 136.599 242.569V242.569Z" fill="black"/>
<path opacity="0.1" d="M129.309 61.1754C129.108 57.6474 131.352 54.9902 134.121 56.1513C133.401 55.5169 132.513 55.1045 131.564 54.9639C130.615 54.8232 129.646 54.9603 128.773 55.3586C126.283 56.4751 126.104 58.9202 126.852 62.906C127.6 66.8918 126.428 67.5952 125.1 67.1709C124.838 67.0313 124.627 66.8125 124.497 66.5457V66.5457C125.524 68.7786 126.517 71.0116 128.84 69.8058C131.162 68.6 129.51 64.6923 129.309 61.1754Z" fill="black"/>
</g>
<path opacity="0.2" d="M106.845 141.662C107.267 143.248 108.214 144.645 109.532 145.622C110.851 146.6 112.462 147.101 114.102 147.043C120.075 146.965 120.734 144.252 123.179 140.546C125.624 136.839 130.883 136.013 135.46 135.935C136.671 135.874 137.848 135.519 138.889 134.899C139.93 134.279 140.804 133.414 141.433 132.379C142.063 131.344 142.43 130.17 142.502 128.961C142.574 127.751 142.349 126.542 141.847 125.44C141.968 126.644 141.748 127.857 141.211 128.942C140.674 130.026 139.841 130.937 138.81 131.569C135.148 133.958 130.28 131.804 125.49 134.092C120.701 136.381 120.288 141.55 116.771 143.192C115.135 143.873 113.344 144.09 111.593 143.82C109.842 143.551 108.2 142.804 106.845 141.662Z" fill="black"/>
<path d="M134.824 138.569C134.635 140.446 133.857 142.215 132.601 143.622C131.345 145.029 129.676 146.003 127.833 146.403C125.99 146.804 124.067 146.61 122.341 145.851C120.614 145.091 119.172 143.805 118.222 142.176C120.589 139.943 121.482 136.147 125.479 134.092C128.639 132.485 131.062 133.222 133.685 133.143C134.626 134.787 135.025 136.686 134.824 138.569Z" fill="#60588E"/>
<path d="M113.097 144.531C111.258 144.649 109.428 144.196 107.856 143.232C106.285 142.269 105.051 140.843 104.322 139.15C104.25 138.986 104.247 138.8 104.311 138.632C104.376 138.465 104.504 138.33 104.668 138.257C104.749 138.22 104.837 138.2 104.926 138.197C105.015 138.194 105.104 138.21 105.187 138.242C105.271 138.274 105.347 138.323 105.411 138.385C105.475 138.447 105.526 138.521 105.561 138.603C106.588 140.925 108.911 143.594 114.281 143.125C117.284 142.868 118.445 141.07 119.863 138.793C121.082 136.554 122.904 134.701 125.122 133.445C127.155 132.443 129.436 132.056 131.687 132.328C134.138 132.698 136.637 132.119 138.676 130.709C139.421 130.227 140.034 129.566 140.457 128.786C140.88 128.005 141.101 127.131 141.099 126.244C141.122 125.216 140.943 124.195 140.571 123.237C140.2 122.279 139.643 121.404 138.933 120.661C138.788 120.554 138.692 120.394 138.664 120.217C138.637 120.039 138.681 119.857 138.788 119.712C138.838 119.64 138.904 119.578 138.979 119.532C139.054 119.485 139.138 119.454 139.226 119.44C139.313 119.427 139.403 119.431 139.488 119.453C139.574 119.474 139.655 119.513 139.725 119.567C141.076 120.55 142.494 123.464 142.45 126.266C142.448 127.373 142.171 128.462 141.645 129.437C141.119 130.411 140.36 131.239 139.435 131.848C137.154 133.423 134.365 134.085 131.62 133.702C129.61 133.426 127.564 133.748 125.736 134.628C123.732 135.774 122.091 137.461 121.002 139.496C119.528 141.729 117.999 144.129 114.303 144.442C113.946 144.531 113.511 144.531 113.097 144.531Z" fill="#60588E"/>
<path d="M132.491 137.598C132.486 138.087 132.337 138.563 132.062 138.966C131.786 139.37 131.397 139.682 130.944 139.865C130.491 140.047 129.994 140.091 129.516 139.99C129.038 139.89 128.6 139.65 128.259 139.3C127.917 138.951 127.687 138.508 127.598 138.028C127.508 137.548 127.563 137.052 127.756 136.603C127.948 136.154 128.27 135.772 128.679 135.506C129.089 135.24 129.568 135.102 130.057 135.108C130.38 135.111 130.7 135.178 130.998 135.305C131.295 135.432 131.565 135.616 131.791 135.847C132.017 136.079 132.195 136.353 132.315 136.653C132.436 136.953 132.495 137.275 132.491 137.598V137.598Z" fill="#F5F5F5"/>
<path opacity="0.2" d="M181.359 132.641L180.767 132.34C179.553 132.258 178.388 131.823 177.418 131.089C176.223 129.973 174.883 126.366 171.065 125.44C167.246 124.513 165.103 126.366 160.86 126.556C156.618 126.746 155.2 123.81 154.351 121.353C153.893 125.518 155.077 128.309 158.091 129.537C161.441 130.899 167.514 128.041 170.105 129.537C172.695 131.033 174.191 134.126 177.418 134.483C178.752 134.686 180.115 134.413 181.269 133.713C181.325 133.367 181.348 132.998 181.359 132.641Z" fill="black"/>
<path d="M177.462 131.134C176.933 133.248 175.619 135.081 173.788 136.262C171.957 137.444 169.745 137.884 167.601 137.495C165.457 137.106 163.541 135.916 162.241 134.167C160.942 132.418 160.356 130.24 160.603 128.075C160.659 127.571 160.76 127.074 160.905 126.59C164.053 126.512 166.923 124.357 171.109 125.473C174.783 126.456 175.039 129.37 177.462 131.134Z" fill="#60588E"/>
<path d="M181.269 133.021C180.332 132.976 179.408 132.78 178.534 132.44C176.959 131.742 175.641 130.571 174.76 129.091C173.924 127.615 172.547 126.522 170.92 126.043C168.806 125.564 166.598 125.712 164.567 126.467C162.234 127.126 159.822 127.807 156.953 126.076C155.649 125.297 154.644 124.105 154.095 122.689C153.547 121.273 153.488 119.714 153.927 118.261C153.956 118.177 154.001 118.099 154.06 118.033C154.119 117.967 154.19 117.913 154.27 117.874C154.35 117.836 154.437 117.814 154.526 117.809C154.614 117.805 154.703 117.818 154.787 117.848C154.871 117.878 154.949 117.924 155.015 117.984C155.081 118.044 155.135 118.117 155.174 118.197C155.212 118.278 155.234 118.366 155.239 118.455C155.243 118.545 155.23 118.634 155.2 118.719C154.876 119.877 154.94 121.109 155.381 122.228C155.823 123.346 156.617 124.29 157.645 124.915C160.023 126.344 161.954 125.797 164.198 125.172C166.467 124.331 168.934 124.18 171.288 124.736C173.234 125.296 174.887 126.588 175.899 128.343C176.644 129.592 177.755 130.582 179.081 131.178C179.821 131.46 180.601 131.623 181.392 131.658C181.569 131.658 181.74 131.724 181.871 131.844C182.001 131.964 182.082 132.129 182.096 132.306C182.1 132.395 182.087 132.484 182.057 132.568C182.026 132.651 181.98 132.728 181.919 132.794C181.859 132.859 181.786 132.912 181.705 132.949C181.624 132.986 181.537 133.007 181.448 133.009L181.269 133.021Z" fill="#60588E"/>
<path d="M173.744 130.631C173.74 131.088 173.599 131.533 173.341 131.91C173.082 132.286 172.718 132.577 172.293 132.746C171.868 132.914 171.403 132.952 170.957 132.856C170.511 132.759 170.103 132.531 169.787 132.202C169.47 131.873 169.259 131.457 169.179 131.007C169.1 130.557 169.157 130.094 169.342 129.676C169.527 129.259 169.832 128.906 170.218 128.662C170.605 128.419 171.055 128.296 171.511 128.309C171.812 128.309 172.11 128.369 172.387 128.487C172.664 128.605 172.914 128.777 173.123 128.994C173.331 129.211 173.494 129.468 173.601 129.749C173.708 130.031 173.756 130.331 173.744 130.631Z" fill="#F5F5F5"/>
<path d="M146.659 149.712C135.058 154.903 124.865 165.164 120.154 176.507C117.251 183.485 118.836 189.28 122.721 190.597C130.403 193.187 139.011 181.219 147.574 177.043C156.138 172.868 163.104 176.909 167.447 174.107C172.561 170.813 171.813 162.406 169.066 156.411C166.007 149.69 158.27 144.531 146.659 149.712Z" fill="#60588E"/>
<path d="M167.157 174.241C162.903 159.448 149.014 154.836 134.925 157.069C128.52 162.267 123.454 168.925 120.154 176.485C117.251 183.463 118.836 189.257 122.721 190.575C130.403 193.165 139.011 181.196 147.574 177.021C155.858 172.979 162.792 176.697 167.157 174.241Z" fill="#FF6D5B"/>
<path opacity="0.1" d="M158.036 175.011C143.778 171.182 134.59 183.429 130.068 183.318C125.546 183.206 123.369 179.265 129.632 169.272C135.896 159.28 149.294 156.545 155.144 159.47C149.305 156.589 142.17 155.931 134.969 157.069C128.564 162.267 123.499 168.925 120.198 176.485C117.295 183.452 118.881 189.257 122.766 190.575C130.447 193.165 139.055 181.196 147.619 177.021C150.871 175.5 154.451 174.809 158.036 175.011Z" fill="black"/>
<path d="M163.462 160.854C160.715 162.049 160.749 165.7 158.482 173.459C158.326 174.006 158.17 174.576 158.013 175.022C161.832 175.112 165.058 175.625 167.447 174.084C167.925 173.765 168.364 173.39 168.754 172.968C169.312 167.107 166.364 159.593 163.462 160.854Z" fill="#F5F5F5"/>
<path d="M168.754 172.99C168.817 172.293 168.836 171.591 168.81 170.891C168.026 171.95 166.896 172.7 165.616 173.013C164.156 173.249 162.667 173.249 161.206 173.013C161.206 173.013 161.921 168.48 162.635 164.583C163.104 161.971 164.667 160.832 165.918 161.736C165.147 160.877 164.31 160.486 163.462 160.854C160.715 162.049 160.749 165.7 158.482 173.459C158.326 174.006 158.17 174.576 158.013 175.022C161.832 175.112 165.058 175.625 167.447 174.084C167.924 173.772 168.362 173.405 168.754 172.99V172.99Z" fill="#E0E0E0"/>
<path d="M133.998 170.489C131.24 171.684 131.285 175.335 129.018 183.094C128.025 186.444 127.176 188.989 126.517 190.776C130.615 189.994 134.913 186.31 139.279 182.771C139.893 176.909 136.923 169.217 133.998 170.489Z" fill="#F5F5F5"/>
<path d="M139.279 182.759C139.363 181.79 139.363 180.815 139.279 179.845C134.936 182.659 132.323 185.673 131.631 185.294C130.939 184.914 131.542 181.866 131.832 178.517C132.189 174.464 132.692 170.266 135.393 170.556C135.175 170.441 134.933 170.375 134.686 170.364C134.439 170.352 134.193 170.395 133.964 170.489C131.207 171.684 131.251 175.335 128.985 183.094C127.991 186.444 127.143 188.989 126.484 190.776C130.581 189.994 134.88 186.31 139.245 182.771L139.279 182.759Z" fill="#E0E0E0"/>
<path d="M39.4213 220.887C39.0421 220.886 38.6655 220.825 38.3048 220.708C37.8805 220.571 37.4878 220.35 37.1499 220.059C36.8119 219.768 36.5355 219.413 36.3369 219.013C36.1383 218.614 36.0214 218.179 35.9931 217.734C35.9649 217.289 36.0258 216.842 36.1724 216.421C45.2716 189.525 58.4795 178.16 76.946 168.536C77.3404 168.33 77.7714 168.205 78.2143 168.166C78.6572 168.127 79.1035 168.176 79.5275 168.31C79.9515 168.444 80.3451 168.66 80.6856 168.946C81.0262 169.231 81.3071 169.581 81.5124 169.976C81.7177 170.37 81.8432 170.801 81.8819 171.244C81.9206 171.687 81.8717 172.133 81.738 172.557C81.6042 172.981 81.3883 173.375 81.1025 173.715C80.8166 174.056 80.4665 174.337 80.0721 174.542C62.6663 183.608 50.9656 193.723 42.6368 218.576C42.4086 219.248 41.976 219.833 41.3995 220.247C40.823 220.661 40.1313 220.885 39.4213 220.887V220.887Z" fill="#60588E"/>
<path d="M37.0321 213.998C35.6141 217.683 33.4482 219.168 31.3827 221.345C29.3172 223.522 27.0843 224.839 24.9295 228.233C22.7747 231.628 21.7587 237.389 22.4062 240.079C22.7635 241.598 24.8737 241.609 24.9965 240.28C25.4542 235.323 26.2804 231.058 29.7526 228.412C28.369 231.29 27.4676 234.375 27.0843 237.545C26.7717 241.899 27.3522 247.102 29.1498 247.359C30.9473 247.615 30.8914 245.773 30.6347 243.15C30.3779 240.526 30.1434 233.604 33.638 228.635C33.638 228.635 32.3875 235.937 33.638 240.604C34.8884 245.271 37.3 248.598 38.6398 248.029C39.9796 247.459 39.9126 246.566 38.4611 242.982C37.3447 240.202 37.3447 236.674 37.6796 233.682C37.7494 230.955 38.832 228.352 40.7164 226.38C41.4215 225.619 42.3092 225.05 43.2955 224.728C43.8514 224.657 44.4161 224.711 44.9488 224.885C45.4816 225.059 45.9693 225.348 46.377 225.733C47.8836 227.126 48.8453 229.01 49.09 231.047C49.4026 233.392 53.2768 233.604 51.8365 227.017C50.3963 220.429 42.2795 219.268 44.3115 213.887L37.0321 213.998Z" fill="#60588E"/>
<path d="M205.676 189.336L208.768 183.351C203.967 180.85 209.46 173.493 206.68 167.341C203.9 161.189 200.93 163.668 202.069 165.733C202.621 166.597 202.994 167.563 203.165 168.574C203.335 169.585 203.301 170.62 203.063 171.617C202.594 173.258 201.533 174.218 200.406 173.247C199.278 172.276 198.552 169.083 194.41 165.566C191.954 163.313 188.804 161.966 185.478 161.747C182.241 161.747 183.38 163.98 184.931 164.617C191.63 167.296 192.456 168.792 194.131 170.981C195.806 173.169 195.594 174.419 194.723 174.163C193.852 173.906 192.49 172.008 188.448 170.132C184.407 168.256 179.84 168.268 179.137 169.127C178.434 169.987 178.512 171.092 180.454 171.55C183.312 172.147 186.089 173.08 188.727 174.33C191.574 175.971 192.87 178.093 192.401 178.707C191.932 179.321 189.498 177.59 185.791 176.92C182.084 176.25 180.209 176.239 178.646 176.842C177.529 177.278 177.92 179.566 181.314 179.734C184.76 180.019 188.093 181.101 191.05 182.893C192.818 184.174 194.711 185.274 196.699 186.176C199.63 187.395 202.627 188.45 205.676 189.336Z" fill="#60588E"/>
<path d="M94.8208 98.9458C98.7396 101 105.025 111.696 97.3217 123.073C94.8677 126.946 91.2979 129.985 87.0825 131.788C82.8672 133.592 78.2042 134.076 73.7082 133.177C70.5821 131.658 54.2146 124.558 53.4107 101.916C52.6069 79.2735 66.4847 70.6543 70.0127 68.6112C73.5408 66.568 80.4406 66.0098 79.5809 73.7581C78.7212 81.5064 77.9062 88.3839 83.5332 93.3634C87.9545 97.3045 94.8208 98.9458 94.8208 98.9458Z" fill="#2B254E"/>
<path opacity="0.75" d="M94.8208 98.9458C98.7396 101 105.025 111.696 97.3217 123.073C94.8677 126.946 91.2979 129.985 87.0825 131.788C82.8672 133.592 78.2042 134.076 73.7082 133.177C70.5821 131.658 54.2146 124.558 53.4107 101.916C52.6069 79.2735 66.4847 70.6543 70.0127 68.6112C73.5408 66.568 80.4406 66.0098 79.5809 73.7581C78.7212 81.5064 77.9062 88.3839 83.5332 93.3634C87.9545 97.3045 94.8208 98.9458 94.8208 98.9458Z" fill="white"/>
<path d="M65.5133 128.365C64.9653 128.366 64.4175 128.34 63.8721 128.287C63.6932 128.267 63.5293 128.177 63.4163 128.037C63.3033 127.897 63.2504 127.718 63.2692 127.539C63.2889 127.36 63.3786 127.196 63.5188 127.083C63.659 126.97 63.8382 126.917 64.0173 126.936C67.3667 127.304 77.7945 126.545 84.9735 118.719C92.3087 110.713 92.6102 102.909 91.5607 97.7735C91.5428 97.6869 91.5422 97.5977 91.5589 97.5109C91.5756 97.4242 91.6093 97.3416 91.6581 97.2679C91.7068 97.1942 91.7697 97.1309 91.8431 97.0816C91.9164 97.0324 91.9988 96.9981 92.0854 96.9808C92.2616 96.9444 92.4449 96.9791 92.5955 97.0774C92.7461 97.1757 92.8517 97.3296 92.8893 97.5055C94.0058 102.943 93.6931 111.205 85.9671 119.634C79.3464 126.858 70.102 128.365 65.5133 128.365Z" fill="#2B254E"/>
<path d="M61.36 113.426C58.8786 113.438 56.4023 113.199 53.969 112.712C53.8825 112.693 53.8006 112.657 53.7279 112.606C53.6553 112.555 53.5934 112.491 53.5457 112.416C53.498 112.342 53.4655 112.258 53.45 112.171C53.4345 112.084 53.4363 111.995 53.4554 111.908C53.4745 111.822 53.5104 111.74 53.5611 111.667C53.6118 111.594 53.6763 111.532 53.751 111.485C53.8256 111.437 53.9089 111.405 53.9961 111.389C54.0834 111.374 54.1728 111.375 54.2593 111.394C54.7728 111.506 66.9201 114.141 75.6174 108.302C83.4997 103.021 84.1919 96.6458 84.4822 93.9216C84.5019 93.7427 84.5916 93.5788 84.7318 93.4658C84.872 93.3528 85.0512 93.2999 85.2303 93.3187C85.3191 93.3269 85.4053 93.3531 85.4837 93.3956C85.5621 93.4381 85.631 93.496 85.6864 93.566C85.7417 93.6359 85.7823 93.7164 85.8056 93.8025C85.8289 93.8885 85.8345 93.9785 85.822 94.0668C85.5429 96.724 84.7837 103.791 76.3766 109.429C71.5869 112.645 65.8371 113.426 61.36 113.426Z" fill="#2B254E"/>
<path d="M64.5978 95.4065C60.5131 95.5254 56.4835 94.4422 53.0088 92.2916C52.9301 92.2457 52.8616 92.1842 52.8075 92.111C52.7534 92.0377 52.7148 91.9542 52.694 91.8655C52.6733 91.7768 52.6709 91.6848 52.6869 91.5951C52.7029 91.5054 52.7371 91.42 52.7872 91.3439C52.8374 91.2679 52.9026 91.2029 52.9787 91.1529C53.0549 91.103 53.1404 91.069 53.2301 91.0532C53.3198 91.0374 53.4118 91.0401 53.5005 91.061C53.5891 91.082 53.6725 91.1208 53.7457 91.1751C55.9786 92.6489 60.9804 94.9376 69.0525 93.7095C75.4276 92.7382 78.1965 90.6839 80.2173 88.6184C80.2796 88.5553 80.3537 88.5052 80.4354 88.4708C80.5171 88.4364 80.6048 88.4184 80.6934 88.4179C80.7821 88.4174 80.8699 88.4343 80.952 88.4678C81.0341 88.5012 81.1088 88.5505 81.1719 88.6128C81.2349 88.6751 81.2851 88.7492 81.3195 88.8309C81.3539 88.9126 81.3718 89.0003 81.3724 89.0889C81.3729 89.1776 81.3559 89.2655 81.3225 89.3475C81.2891 89.4296 81.2398 89.5043 81.1775 89.5674C78.9445 91.8003 76.0193 94.0333 69.2535 95.0493C67.7129 95.2858 66.1565 95.4052 64.5978 95.4065Z" fill="#2B254E"/>
<path d="M71.7098 82.3438C70.3299 82.3372 68.9565 82.1533 67.6235 81.7967C65.9783 81.4355 64.4327 80.7172 63.0957 79.6928C61.7587 78.6684 60.6631 77.3627 59.8863 75.8682C59.8459 75.7883 59.8217 75.7013 59.815 75.612C59.8083 75.5227 59.8192 75.433 59.8472 75.348C59.8752 75.263 59.9197 75.1843 59.9781 75.1165C60.0366 75.0486 60.1078 74.993 60.1877 74.9527C60.2668 74.9126 60.3531 74.8885 60.4415 74.882C60.5299 74.8754 60.6188 74.8865 60.7029 74.9145C60.787 74.9425 60.8647 74.987 60.9316 75.0453C60.9984 75.1036 61.0529 75.1746 61.0921 75.2542C61.7754 76.5825 62.7463 77.7417 63.9341 78.6475C65.1219 79.5533 66.4967 80.1829 67.9584 80.4904C69.8378 81.0184 71.8094 81.1321 73.737 80.8237C75.6646 80.5153 77.5023 79.7921 79.1232 78.7041C79.1964 78.6525 79.2794 78.6165 79.367 78.5981C79.4547 78.5797 79.5451 78.5794 79.6329 78.5972C79.7207 78.6149 79.8039 78.6504 79.8775 78.7014C79.9511 78.7524 80.0136 78.8179 80.061 78.8939C80.111 78.9676 80.1458 79.0506 80.1633 79.138C80.1808 79.2254 80.1808 79.3153 80.1631 79.4027C80.1454 79.49 80.1105 79.5729 80.0604 79.6466C80.0102 79.7203 79.9459 79.7832 79.8712 79.8317C77.46 81.4598 74.6191 82.3342 71.7098 82.3438V82.3438Z" fill="#2B254E"/>
<path opacity="0.1" d="M82.5395 125.105C77.6047 124.647 71.3748 123.251 66.0715 115.056C60.7683 106.862 59.0601 89.7683 63.9391 79.4745C67.1545 72.6975 73.5743 66.4899 78.2076 68.5665C76.1421 66.635 72.3238 67.3272 70.0127 68.6558C66.5293 70.6655 52.6069 79.3181 53.4107 101.949C54.2146 124.58 70.5821 131.67 73.7082 133.21C78.2042 134.11 82.8672 133.625 87.0825 131.822C91.2978 130.018 94.8677 126.979 97.3217 123.106C102.48 115.492 101.363 108.179 98.8959 103.557C102.759 115.659 89.9306 125.775 82.5395 125.105Z" fill="black"/>
<path d="M92.6771 122.76C92.6771 122.76 86.8491 129.18 86.8045 135.343C86.7699 136.135 86.8961 136.926 87.1753 137.668C87.4546 138.41 87.8812 139.087 88.4294 139.66C88.9776 140.233 89.6361 140.688 90.3652 141C91.0942 141.311 91.8788 141.471 92.6716 141.471C93.4643 141.471 94.2489 141.311 94.9779 141C95.707 140.688 96.3655 140.233 96.9137 139.66C97.4619 139.087 97.8885 138.41 98.1678 137.668C98.447 136.926 98.5732 136.135 98.5386 135.343C98.494 129.18 92.6771 122.76 92.6771 122.76Z" fill="#FAFAFA"/>
<path d="M292.012 20.2566L220.045 61.7783C219.648 62.0336 219.318 62.3792 219.081 62.7868C218.845 63.1944 218.708 63.6523 218.682 64.1229V109.385C218.709 109.854 218.846 110.31 219.083 110.715C219.32 111.121 219.649 111.465 220.045 111.718L224.901 114.431C225.322 114.643 225.787 114.754 226.258 114.754C226.729 114.754 227.194 114.643 227.614 114.431L299.616 72.9207C300.009 72.6629 300.336 72.3164 300.57 71.9092C300.805 71.502 300.941 71.0454 300.967 70.5762V25.3031C300.94 24.8342 300.803 24.3782 300.566 23.9725C300.33 23.5669 300 23.2232 299.605 22.9697L294.748 20.2455C294.323 20.0341 293.854 19.925 293.379 19.927C292.904 19.9289 292.436 20.0418 292.012 20.2566V20.2566Z" fill="#2B254E"/>
<path d="M226.263 113.639V68.3767C226.289 67.9074 226.425 67.4508 226.66 67.0436C226.894 66.6364 227.221 66.2899 227.614 66.0321L299.616 24.5216C300.364 24.0862 300.967 24.4434 300.967 25.3031V70.565C300.941 71.0342 300.805 71.4908 300.57 71.898C300.336 72.3053 300.009 72.6517 299.616 72.9096L227.614 114.387C226.866 114.856 226.263 114.498 226.263 113.639Z" fill="#2B254E"/>
<path opacity="0.2" d="M227.614 114.387C227.194 114.601 226.729 114.713 226.258 114.713C225.786 114.713 225.321 114.601 224.901 114.387L220.045 111.651C219.649 111.401 219.319 111.059 219.082 110.655C218.845 110.251 218.708 109.797 218.682 109.329V64.1453C218.7 63.6529 218.85 63.1744 219.118 62.7608L226.665 67.0704C226.414 67.4692 226.276 67.9281 226.263 68.399V113.661C226.263 114.387 226.822 114.889 227.614 114.387Z" fill="black"/>
<path opacity="0.4" d="M300.944 25.0686C300.844 24.3876 300.286 24.142 299.604 24.5327L227.625 66.0433C227.225 66.2957 226.895 66.6452 226.665 67.0593L219.107 62.7497C219.332 62.3549 219.655 62.0244 220.045 61.7895L292.012 20.2566C292.434 20.0472 292.898 19.9381 293.369 19.9381C293.84 19.9381 294.304 20.0472 294.725 20.2566L299.582 22.9808C299.946 23.2099 300.257 23.5151 300.492 23.8755C300.727 24.2359 300.881 24.643 300.944 25.0686Z" fill="white"/>
<path d="M218.682 80.2001L207.786 91.2867C207.661 91.414 207.566 91.5675 207.507 91.7359C207.449 91.9044 207.429 92.0837 207.448 92.2609C207.467 92.4382 207.525 92.609 207.619 92.761C207.712 92.913 207.837 93.0425 207.987 93.1401C208.21 93.2964 215.534 97.4832 215.534 97.4832L226.263 84.5656L218.682 80.2001Z" fill="#2B254E"/>
<path opacity="0.1" d="M218.682 80.2001L207.786 91.2867C207.661 91.414 207.566 91.5675 207.507 91.7359C207.449 91.9044 207.429 92.0837 207.448 92.2609C207.467 92.4382 207.525 92.609 207.619 92.761C207.712 92.913 207.837 93.0425 207.987 93.1401C208.21 93.2964 215.534 97.4832 215.534 97.4832L226.263 84.5656L218.682 80.2001Z" fill="black"/>
<path d="M226.263 84.5656L215.367 95.6522C215.193 95.8323 215.08 96.062 215.042 96.3094C215.005 96.5567 215.046 96.8096 215.159 97.0329C215.271 97.2561 215.451 97.4387 215.672 97.5554C215.894 97.6721 216.146 97.7171 216.394 97.6841L226.263 96.2551C227.324 96.2551 227.324 84.5656 226.263 84.5656Z" fill="#2B254E"/>
<path d="M235.072 80.8924C235.122 79.6055 235.297 78.3265 235.597 77.074C235.898 75.8259 236.34 74.6161 236.914 73.4678C237.475 72.3441 238.173 71.2941 238.991 70.3417C239.785 69.4048 240.737 68.6149 241.805 68.0083C242.641 67.4614 243.609 67.1491 244.607 67.1039C245.365 67.08 246.105 67.3386 246.684 67.8296C247.306 68.3918 247.761 69.114 248.001 69.9174C248.336 70.9532 248.512 72.0334 248.526 73.1217C248.526 74.0484 248.526 75.042 248.526 76.0804C248.526 77.1187 248.526 78.1012 248.526 79.0279C248.488 80.312 248.312 81.5884 248.001 82.835C247.698 84.0898 247.256 85.3068 246.684 86.4636C246.131 87.5919 245.433 88.6429 244.607 89.5897C243.807 90.5127 242.86 91.2974 241.805 91.912C240.961 92.4562 239.993 92.7752 238.991 92.8386C238.233 92.8626 237.493 92.604 236.914 92.1129C236.295 91.5355 235.84 90.8032 235.597 89.9916C235.273 88.9571 235.097 87.8822 235.072 86.7985C235.072 85.9053 235.072 84.9452 235.072 83.8957C235.072 82.8462 235.072 81.8749 235.072 80.8924ZM244.54 81.1603C244.54 80.7584 244.54 80.3118 244.54 79.8094C244.54 79.307 244.54 78.8157 244.54 78.3021C244.54 77.7886 244.54 77.3085 244.54 76.8396C244.54 76.3707 244.54 75.9576 244.54 75.5891C244.526 75.1162 244.451 74.6471 244.317 74.1935C244.224 73.8481 244.043 73.5326 243.792 73.278C243.569 73.0649 243.274 72.9451 242.966 72.9431C242.567 72.9639 242.182 73.0912 241.849 73.3115C241.431 73.5775 241.054 73.9049 240.733 74.2828C240.405 74.6788 240.128 75.1138 239.907 75.5779C239.682 76.0645 239.51 76.5735 239.393 77.0964C239.269 77.6396 239.19 78.1924 239.159 78.7487C239.159 79.1395 239.159 79.5749 239.159 80.055C239.159 80.5351 239.159 81.0375 239.159 81.5399C239.159 82.0423 239.159 82.5447 239.159 83.036C239.159 83.5272 239.159 83.9515 239.159 84.3311C239.143 85.1668 239.406 85.9839 239.907 86.6534C240.342 87.1335 241.023 87.1111 241.905 86.5976C242.792 86.092 243.487 85.3068 243.881 84.3646C244.295 83.3531 244.522 82.275 244.551 81.1827L244.54 81.1603Z" fill="#CAC8D3"/>
<path d="M262.069 70.0179C262.069 70.3417 262.069 70.766 262.069 71.2795C262.069 71.7931 262.069 72.2285 262.069 72.5746C262.033 73.676 261.872 74.7698 261.589 75.8347C261.305 76.9153 260.908 77.9631 260.405 78.9609C259.911 79.9291 259.3 80.8328 258.585 81.6516C257.905 82.4397 257.098 83.1077 256.196 83.6277C255.481 84.0825 254.663 84.3512 253.818 84.4093C253.157 84.4343 252.508 84.2247 251.987 83.8175C251.445 83.3472 251.037 82.7427 250.803 82.0647C250.494 81.1897 250.336 80.2685 250.334 79.3405C250.334 79.0167 250.334 78.6036 250.334 78.0789C250.334 77.5541 250.334 77.1299 250.334 76.7837C250.354 75.6869 250.504 74.5963 250.781 73.5348C251.068 72.4519 251.472 71.4036 251.987 70.4087C252.483 69.429 253.098 68.5141 253.818 67.6845C254.494 66.8934 255.297 66.2216 256.196 65.6972C256.914 65.2426 257.737 64.9811 258.585 64.938C259.247 64.9236 259.893 65.1364 260.416 65.5409C260.966 66.0041 261.375 66.611 261.6 67.2937C261.898 68.1715 262.056 69.0908 262.069 70.0179V70.0179ZM254.253 76.9401C254.233 77.2389 254.276 77.5387 254.38 77.8197C254.484 78.1006 254.646 78.3564 254.856 78.5701C255.202 78.8492 255.671 78.8157 256.241 78.4808C256.843 78.1203 257.328 77.5929 257.636 76.9624C257.994 76.2424 258.196 75.4548 258.228 74.6513C258.228 74.294 258.228 73.9144 258.228 73.5348C258.228 73.1552 258.228 72.7533 258.228 72.4183C258.243 72.1209 258.198 71.8235 258.097 71.5435C257.995 71.2636 257.839 71.0068 257.636 70.7883C257.423 70.6563 257.174 70.594 256.924 70.61C256.674 70.626 256.435 70.7195 256.241 70.8776C255.642 71.2388 255.161 71.7663 254.856 72.396C254.489 73.1172 254.284 73.9096 254.253 74.7183C254.253 75.0644 254.253 75.444 254.253 75.8347C254.253 76.2255 254.186 76.6274 254.209 76.9401H254.253Z" fill="#CAC8D3"/>
<path d="M270.866 75.1649C270.52 75.3691 270.143 75.5161 269.75 75.6003C269.481 75.6583 269.204 75.6583 268.935 75.6003C268.722 75.5435 268.523 75.4406 268.354 75.2988C268.209 75.172 268.078 75.0298 267.964 74.8746V81.9419C267.963 82.1981 267.902 82.4506 267.785 82.6787C267.7 82.8804 267.561 83.0544 267.383 83.1811L264.659 84.7442C264.603 84.7915 264.531 84.8174 264.458 84.8174C264.384 84.8174 264.313 84.7915 264.257 84.7442C264.191 84.6725 264.141 84.5877 264.11 84.4953C264.08 84.403 264.069 84.3052 264.078 84.2083V62.3701C264.078 62.1172 264.139 61.8681 264.257 61.6444C264.335 61.4389 264.476 61.2632 264.659 61.1419L267.283 59.6794C267.338 59.6268 267.412 59.5975 267.489 59.5975C267.566 59.5975 267.64 59.6268 267.696 59.6794C267.82 59.8289 267.88 60.0215 267.863 60.2153V60.9745L268.287 60.0366C268.439 59.6941 268.626 59.3685 268.846 59.0653C269.091 58.7311 269.364 58.4174 269.661 58.1275C270.026 57.789 270.43 57.4966 270.866 57.2566C271.419 56.9086 272.047 56.698 272.697 56.6425C272.971 56.6231 273.246 56.6596 273.505 56.7498C273.764 56.84 274.002 56.9821 274.205 57.1673C274.703 57.6536 275.064 58.2618 275.254 58.9313C275.553 59.9499 275.7 61.0071 275.69 62.0686C275.69 62.3924 275.69 62.839 275.69 63.3972C275.69 63.9555 275.69 64.4132 275.69 64.7593C275.679 65.9849 275.533 67.2055 275.254 68.399C275.015 69.4282 274.663 70.428 274.205 71.38C273.808 72.1907 273.301 72.9422 272.697 73.613C272.172 74.2231 271.554 74.7469 270.866 75.1649ZM271.838 66.568C271.882 65.9473 271.882 65.3242 271.838 64.7035C271.835 64.0911 271.661 63.4916 271.335 62.973C271.045 62.5561 270.565 62.5561 269.895 62.973C269.576 63.1506 269.295 63.3897 269.069 63.6763C268.843 63.9694 268.652 64.2879 268.5 64.6253C268.352 64.9649 268.233 65.3159 268.142 65.6748C268.057 66.042 268.001 66.4153 267.975 66.7913C267.975 67.1374 267.975 67.5393 267.975 67.9748C267.956 68.3467 267.956 68.7193 267.975 69.0912C267.999 69.3867 268.056 69.6786 268.142 69.9621C268.22 70.195 268.341 70.411 268.5 70.5985C268.648 70.7598 268.851 70.8594 269.069 70.8776C269.362 70.8839 269.649 70.8022 269.895 70.6431C270.555 70.2582 271.063 69.6594 271.335 68.9461C271.631 68.1859 271.8 67.3827 271.838 66.568V66.568Z" fill="#CAC8D3"/>
<path d="M284.108 62.0016C284.108 61.756 284.052 61.5997 283.94 61.5327C283.765 61.4613 283.569 61.4613 283.393 61.5327C283.044 61.6185 282.701 61.7266 282.366 61.8565C281.942 62.0128 281.417 62.1803 280.781 62.3701C280.366 62.5501 279.908 62.6079 279.461 62.5368C279.014 62.4656 278.596 62.2683 278.258 61.9681C277.571 61.0749 277.255 59.9512 277.376 58.8308C277.38 58.0462 277.505 57.267 277.744 56.5197C277.997 55.7373 278.341 54.9877 278.771 54.2868C279.214 53.5364 279.746 52.8427 280.356 52.2213C280.968 51.5936 281.663 51.0527 282.422 50.6136C283.054 50.2236 283.755 49.9583 284.487 49.8321C285.036 49.7359 285.6 49.7781 286.129 49.9549C286.59 50.1026 286.985 50.4066 287.245 50.8146C287.517 51.2386 287.668 51.7289 287.681 52.2325C287.698 52.4843 287.644 52.7358 287.524 52.9582C287.434 53.1661 287.287 53.3443 287.1 53.4718L284.532 54.9455C284.376 55.046 284.253 55.0572 284.164 55.0013L283.829 54.8339C283.667 54.7638 283.49 54.7368 283.315 54.7557C283.003 54.8043 282.705 54.9226 282.444 55.1018C282.127 55.2767 281.846 55.5118 281.618 55.794C281.401 56.0451 281.282 56.3664 281.283 56.6984C281.267 56.8721 281.302 57.0467 281.384 57.2008C281.458 57.2901 281.603 57.3124 281.819 57.2678C282.127 57.1962 282.429 57.1029 282.723 56.9887L284.253 56.4751C285.559 56.0508 286.486 56.1848 287.111 56.8659C287.764 57.7292 288.082 58.8005 288.004 59.8803C287.998 60.6676 287.878 61.4498 287.647 62.2026C287.373 63.0308 286.998 63.8221 286.531 64.5584C286.046 65.37 285.465 66.1198 284.8 66.7913C284.112 67.4754 283.339 68.0683 282.5 68.5553C281.817 68.9812 281.059 69.273 280.267 69.415C279.709 69.5038 279.138 69.4382 278.615 69.2252C278.185 69.0249 277.826 68.6976 277.588 68.2874C277.348 67.86 277.214 67.3815 277.197 66.8918C277.18 66.64 277.234 66.3884 277.353 66.1661C277.446 65.96 277.593 65.7826 277.777 65.6525L280.446 64.1118C280.613 64.0224 280.725 64.0113 280.792 64.1118C280.878 64.198 280.971 64.2765 281.071 64.3462C281.225 64.4301 281.399 64.4688 281.573 64.4579C281.921 64.4048 282.253 64.2751 282.545 64.0783C282.964 63.8357 283.341 63.5265 283.661 63.1628C283.958 62.85 284.118 62.4325 284.108 62.0016V62.0016Z" fill="#CAC8D3"/>
<path d="M293.832 53.5388C293.83 53.7913 293.769 54.0398 293.654 54.2645C293.576 54.4699 293.435 54.6456 293.252 54.7669L290.528 56.3299C290.474 56.3818 290.401 56.4107 290.327 56.4107C290.252 56.4107 290.18 56.3818 290.126 56.3299C290.06 56.2582 290.01 56.1734 289.979 56.081C289.948 55.9887 289.937 55.8909 289.947 55.794V41.4697C289.948 41.2134 290.009 40.961 290.126 40.7328C290.204 40.5274 290.344 40.3516 290.528 40.2304L293.252 38.6673C293.306 38.6155 293.378 38.5865 293.453 38.5865C293.528 38.5865 293.6 38.6155 293.654 38.6673C293.719 38.7391 293.769 38.8239 293.8 38.9162C293.831 39.0086 293.842 39.1064 293.832 39.2032V53.5388ZM293.832 60.673C293.833 60.9259 293.771 61.175 293.654 61.3987C293.576 61.6042 293.435 61.7799 293.252 61.9011L290.528 63.4754C290.472 63.5248 290.401 63.5521 290.327 63.5521C290.252 63.5521 290.181 63.5248 290.126 63.4754C290.06 63.4061 290.009 63.3233 289.978 63.2327C289.948 63.1421 289.937 63.0458 289.947 62.9506V59.6012C289.949 59.3487 290.01 59.1002 290.126 58.8755C290.204 58.6701 290.344 58.4943 290.528 58.3731L293.252 56.7989C293.307 56.7494 293.379 56.7221 293.453 56.7221C293.527 56.7221 293.598 56.7494 293.654 56.7989C293.719 56.8706 293.769 56.9554 293.8 57.0478C293.831 57.1401 293.842 57.2379 293.832 57.3348V60.673Z" fill="#CAC8D3"/>
</svg>
